<svg height="200" viewBox="0 0 1024 1024" width="200" xmlns="http://www.w3.org/2000/svg"><path d="m1024 512c0 281.6-230.4 512-512 512s-512-230.4-512-512 230.4-512 512-512 512 230.4 512 512zm-953.6 0c0 243.2 198.4 441.6 441.6 441.6s441.6-198.4 441.6-441.6-198.4-441.6-441.6-441.6-441.6 198.4-441.6 441.6zm576-198.4-198.4 198.4 198.4 198.4c12.8 12.8 12.8 32 0 51.2-12.8 12.8-32 12.8-51.2 0l-217.6-224c-6.4-6.4-12.8-19.2-12.8-25.6s6.4-19.2 12.8-25.6l217.6-217.6c19.2-12.8 38.4-12.8 51.2 0s12.8 32 0 44.8z" fill="#fff"/></svg>