<svg height="32" viewBox="0 0 1024 1024" width="32" xmlns="http://www.w3.org/2000/svg"><path d="m0 512a512 512 0 1 0 1024 0 512 512 0 1 0 -1024 0z" fill="#f5ad28"/><path d="m682.269438 572.151843-110.35877 110.358769a85.120532 85.120532 0 0 1 -120.374619 0l170.553172-170.538986 60.194403 60.180217z" fill="#f8dab2"/><path d="m451.309061 682.60992-110.344583-110.344583a85.120532 85.120532 0 0 1 0-120.374619l170.524799 170.524799z" fill="#fcf7ef"/><path d="m340.538875 451.79141 110.344583-110.344583a85.120532 85.120532 0 0 1 120.388806 0l-170.538986 170.553173-60.194403-60.194403z" fill="#f8dab2"/><path d="m572.747686 339.857911 110.344583 110.344583a85.120532 85.120532 0 0 1 0 120.374619l-170.524799-170.510613 60.180216-60.194402z" fill="#fcf7ef"/></svg>