<svg height="32" viewBox="0 0 1024 1024" width="32" xmlns="http://www.w3.org/2000/svg"><path d="m544.059897 959.266898h-64.949141c-228.633593 0-415.697442-187.063849-415.697442-415.697442v-64.949141c0-228.633593 187.063849-415.697442 415.697442-415.697442h64.949141c228.633593 0 415.697442 187.063849 415.697442 415.697442v64.949141c-.001024 228.633593-187.064873 415.697442-415.697442 415.697442z" fill="#3c599b"/><path d="m541.542163 743.516854h-96.560577v-233.44483h-48.259811v-80.47841h48.259811v-48.290528c0-65.612619 27.246612-104.676916 104.630841-104.676916h64.441295v80.476363h-40.257123c-30.137041 0-32.140784 11.255571-32.140784 32.23191l-.111604 40.259171h72.977427l-8.547395 80.47841h-64.430032v233.44483z" fill="#fff"/></svg>