<svg xmlns="http://www.w3.org/2000/svg" viewBox="0 0 221 225" height="24" width="24">
    <path fill="#D8D8D8"
        fill-rule="nonzero"
        d="M5.073,74C-9,175 59,209.347 111.648,209.347C149,206 225,168 204,74"
        stroke="#979797" stroke-width="1"/>
    <path fill="#00000000" fill-rule="nonzero"
        d="M16.06,99.724l23.073,0l0,16.504l-23.073,0"
        stroke="#FFFFFF" stroke-width="4"/>
    <path fill="#00000000" fill-rule="nonzero"
        d="M200.644,99.724l-23.073,0l-0,16.504l23.073,0"
        stroke="#FFFFFF" stroke-width="4"/>
    <path fill="#FFFFFF" fill-rule="nonzero"
        d="M39.133,107.426h138.438v2.201h-138.438z"
        stroke="#00000000" stroke-width="1"/>
    <path fill="#00000000" fill-rule="evenodd"
        d="M207.6,96.523C207.204,92.118 206.538,87.79 205.604,83.563C195.426,37.474 154.382,3 105.297,3C57.057,3 16.583,36.297 5.543,81.193C4.32,86.17 3.459,91.291 2.988,96.523"
        stroke="#FFFFFF" stroke-width="6"/>
    <path fill="#00000000" fill-rule="evenodd"
        d="M3.092,116.328C8.322,168.235 52.085,208.751 105.297,208.751C155.461,208.751 197.228,172.744 206.231,125.13C206.778,122.238 207.197,119.301 207.497,116.328"
        stroke="#FFFFFF" stroke-width="6"/>
    <path fill="#F24724" fill-rule="nonzero"
        d="M196.915,198.224L204.99,190.15L202.298,187.458L194.224,195.532L186.15,187.458L183.458,190.15L191.533,198.224L183.458,206.298L186.15,208.99L194.224,200.915L202.298,208.99L204.99,206.298L196.915,198.224ZM194.5,172C209.119,172 221,183.881 221,198.5C221,213.119 209.119,225 194.5,225C179.881,225 168,213.119 168,198.5C168,183.881 179.881,172 194.5,172Z"
        stroke="#00000000" stroke-width="1"/>
</svg>
