<svg xmlns="http://www.w3.org/2000/svg" viewBox="0 0 205.66 573.95" height="574" width="206">
    <path fill-opacity="0.4" fill="#f7f8f8"
        d="M81.38,40.17c-6.59,-14.55 0.28,-34.42 17.07,-37.76 20.06,-4 31.95,20.07 24,36.35 -0.56,1.15 1.16,2.17 1.73,1C132.61,22.5 120.75,-2.64 99.48,0.22 80.4,2.79 72.33,25 79.65,41.18c0.53,1.17 2.25,0.16 1.73,-1Z" stroke-opacity="0.4"/>
    <path fill-opacity="0.4" fill="#f7f8f8"
        d="M80.85,39.7c-0.57,-1.7 -2.89,-6.89 -5.48,-5.82C72.41,35.1 73.28,42 74,44.16c2,5.83 8.45,8.26 10.46,13.91 2.65,7.48 -0.82,13.83 -4.25,20.29a0.29,0.29 0,0 0,0.45 0.35c6.11,-4.94 8.23,-13.82 5.72,-21.18 -1.19,-3.48 -3.82,-5.48 -6.34,-8 -2.68,-2.65 -5.33,-6.38 -4.66,-10.39 0.85,-5.09 2.94,-1.2 4.65,1 0.29,0.37 0.91,0 0.77,-0.45Z" stroke-opacity="0.4"/>
    <path fill-opacity="0.4" fill="#f7f8f8"
        d="M123.73,38.24c0.31,-0.7 1.38,-3.63 2.11,-4 2,-1 2.83,1.41 3.1,2.76 1,5.28 -1.12,8.08 -4.29,11.75A21.41,21.41 0,0 0,119.24 60c-1.08,7.25 0.85,17.12 7.7,21.06 0.26,0.15 0.61,-0.16 0.43,-0.43 -4.12,-5.89 -7.21,-11.6 -6.54,-19.08a20.08,20.08 0,0 1,5 -11.54c1.56,-1.88 3.34,-3.62 4.3,-5.91a11.4,11.4 0,0 0,0.57 -6.7c-0.26,-1.4 -0.8,-5 -2.35,-5.84 -3.21,-1.65 -4.82,4.46 -5.32,6.45 -0.1,0.38 0.49,0.66 0.66,0.28Z" stroke-opacity="0.4"/>
    <path fill-opacity="0.4" fill="#f7f8f8"
        d="M85,71.8c-5.53,6.26 -10.85,12.78 -17.85,17.48s-14.59,5.84 -22.63,8.09c-6.1,1.71 -9.79,5.82 -12.5,11.48 -3.22,6.73 -5.73,15.32 -4.59,22.81 0.07,0.49 0.87,0.47 1,0 1.66,-8.65 2.27,-17.53 7.27,-25.13a16,16 0,0 1,10.13 -7.36c3.37,-0.87 6.84,-1.23 10.18,-2.24C68.62,93.09 78.92,83.45 85.3,72c0.11,-0.19 -0.16,-0.42 -0.32,-0.25Z" stroke-opacity="0.4"/>
    <path fill-opacity="0.4" fill="#f7f8f8"
        d="M123.71,78.38a53.08,53.08 0,0 0,16.91 13c6.74,3.34 14.08,5.71 20.57,9.53 11.8,6.94 11.93,23.25 12.6,35.28 0.07,1.28 2.07,1.29 2,0 -0.63,-11.33 -0.79,-25.32 -9.48,-33.86 -4.93,-4.85 -12.43,-7.09 -18.62,-9.86a109.6,109.6 0,0 1,-11.93 -6c-4.26,-2.56 -7.34,-5.82 -10.62,-9.48 -0.86,-1 -2.27,0.46 -1.41,1.41Z" stroke-opacity="0.4"/>
    <path fill-opacity="0.4" fill="#f7f8f8"
        d="M27.34,125.56A537.69,537.69 0,0 1,19 183.63c-1.94,9.48 -5.17,18.43 -8,27.66a94.45,94.45 0,0 0,-3.76 23.84C6.55,253 9.32,271.2 5.54,288.85c-1.4,6.51 -6.26,14 -5.45,20.73 0.68,5.65 5.6,7.56 10.68,7.83 3.29,0.17 9.66,1.16 12.72,-0.19 2.1,-0.92 1.93,-2.22 1.85,-4.55 -0.36,-10.12 -3.16,-20.1 -3.73,-30.25a0.81,0.81 0,0 0,-1.61 0c-0.19,7.38 1.27,14.71 2.54,22 0.38,2.18 0.81,4.38 1,6.59 0.25,2.78 0.39,4 -2.91,4.58a39,39 0,0 1,-11.81 -0.4c-11.9,-2.14 -3.94,-15.32 -2.05,-22.4A92.86,92.86 0,0 0,9.51 272c0.51,-14.9 -1.25,-29.86 0.36,-44.72 1.78,-16.4 9,-31.64 12,-47.86 3.24,-17.65 6.69,-35.89 6.54,-53.88a0.54,0.54 0,0 0,-1.08 0Z" stroke-opacity="0.4"/>
    <path fill-opacity="0.4" fill="#f7f8f8"
        d="M51.86,159.92c-2.54,6.42 -2.78,13.54 -5.16,20 -3.2,8.68 -10.43,17 -8.52,26.92 0.12,0.63 1,0.55 1.21,0 1.77,-5.88 2,-11.6 4.68,-17.32 1.52,-3.26 3.61,-6.31 4.61,-9.79 1.84,-6.44 2.25,-13.16 3.79,-19.64a0.31,0.31 0,0 0,-0.6 -0.17Z" stroke-opacity="0.4"/>
    <path fill-opacity="0.4" fill="#f7f8f8"
        d="M38.52,198.37c0,14 -1.86,29.41 -7.23,42.39 -3.09,7.47 -6.44,14.65 -8.29,22.56 -1.63,7 -3.45,15.29 -2.86,22.43a0.66,0.66 0,0 0,1.29 0.17c2.4,-7.7 2.1,-16.24 4.14,-24.12 2.12,-8.16 6.06,-15.53 8.91,-23.42a89.29,89.29 0,0 0,4.55 -40c0,-0.32 -0.52,-0.34 -0.52,0Z" stroke-opacity="0.4"/>
    <path fill-opacity="0.4" fill="#f7f8f8"
        d="M155.93,161.74c3.88,6.21 5.57,13.82 6.78,21 1.16,6.89 0.89,14.11 2.35,20.91a0.49,0.49 0,0 0,0.93 0c1.4,-7 -0.24,-15.24 -1.61,-22.13 -1.42,-7.13 -3.43,-14.31 -8,-20.1 -0.21,-0.27 -0.64,0.08 -0.47,0.36Z" stroke-opacity="0.4"/>
    <path fill-opacity="0.4" fill="#f7f8f8"
        d="M163.72,191.8c0.74,9.45 0,18.9 0.5,28.35a72,72 0,0 0,6.06 24.34c6.53,15.53 13.8,29.86 10.42,47.18a0.34,0.34 0,0 0,0.61 0.26c7.53,-12.32 -1.07,-30.28 -6.26,-41.88 -4.34,-9.7 -8.1,-19.17 -8.73,-29.9 -0.56,-9.52 0.47,-19.09 -1.8,-28.45 -0.11,-0.44 -0.83,-0.36 -0.8,0.11Z" stroke-opacity="0.4"/>
    <path fill-opacity="0.4" fill="#f7f8f8"
        d="M182.64,275.22c0.27,7.79 -2.64,16.2 -5,23.54 -0.8,2.55 -2.38,5.13 -1.3,7.77 1,2.46 4.2,4.43 6.09,6.08A18.66,18.66 0,0 0,197 316.9c3.06,-0.3 9.56,-0.69 8.23,-5.27a0.82,0.82 0,0 0,-1.61 0.22c-0.1,2.12 -5.29,2.82 -6.87,3a19.84,19.84 0,0 1,-7 -0.54c-3,-0.76 -4.91,-2.25 -7.17,-4.27 -2.78,-2.48 -4.91,-4.82 -3.63,-8.68 2.76,-8.38 5.12,-17.25 4.1,-26.11 0,-0.25 -0.42,-0.27 -0.41,0Z" stroke-opacity="0.4"/>
    <path fill-opacity="0.4" fill="#f7f8f8"
        d="M173.84,127.49c-0.7,8 1.1,16 2.84,23.8a253,253 0,0 1,4.66 25.43c0.89,7.48 2.05,14.76 4.77,21.84C189,206 192.21,213 193.59,221c2.77,15.87 0.44,32 0.8,48A91.06,91.06 0,0 0,197 290c1.07,4.09 2.65,8 4,12 1,2.91 4,8.7 2,11.43 -0.54,0.75 0.67,1.69 1.29,1 3.34,-3.79 -0.39,-10.65 -1.82,-14.71 -2.95,-8.41 -5.15,-16.55 -5.73,-25.49 -1,-16.13 1.45,-32.31 -0.32,-48.41a78.42,78.42 0,0 0,-5.56 -21.33,100.11 100.11,0 0,1 -7.17,-25.93c-2.19,-17.24 -7.25,-33.84 -9.3,-51.09a0.29,0.29 0,0 0,-0.58 0Z" stroke-opacity="0.4"/>
    <path fill-opacity="0.4" fill="#f7f8f8"
        d="M51.75,160.24c3,4.07 2.44,10.42 2.51,15.19s-0.21,9.67 0.4,14.43c1.05,8.18 3.4,16 3.44,24.36s-1.95,16.7 -3.57,25q-4.69,23.88 -7,48.15 -1.23,12.52 -1.82,25.09c-0.42,8.87 -1.28,18.24 -0.3,27.08a0.9,0.9 0,0 0,1.8 0c0.89,-8.93 0.37,-18.11 0.79,-27.08s1.09,-18 2,-27c1.83,-18.09 4.95,-35.89 8.35,-53.74 1.47,-7.72 2.37,-15.38 1.63,-23.25 -0.68,-7.3 -3.09,-14.37 -3.56,-21.66 -0.51,-7.88 1.85,-20.59 -3.88,-27.08 -0.35,-0.39 -1.05,0.13 -0.74,0.57Z" stroke-opacity="0.4"/>
    <path fill-opacity="0.4" fill="#f7f8f8"
        d="M155.22,161.32c-6.28,15.67 -11,33.43 -11.76,50.34 -1.15,24.06 6.4,48.19 12.34,71.22a1,1 0,0 0,1.93 -0.53c-5.9,-22.87 -13.41,-46.8 -12.27,-70.68 0.8,-16.7 5.49,-34.32 11.69,-49.81 0.48,-1.19 -1.45,-1.71 -1.93,-0.53Z" stroke-opacity="0.4"/>
    <path fill-opacity="0.4" fill="#f7f8f8"
        d="M45.27,339.51a375.78,375.78 0,0 0,1.86 45.94c0.42,4.32 0.37,8.32 -1.49,12.34 -1.14,2.48 -2.62,4.78 -3.63,7.33 -2.44,6.17 -2.67,12.83 -2.33,19.37 0.07,1.27 2,1.28 2,0 -0.42,-8.2 0.49,-15.59 4.28,-23a26.16,26.16 0,0 0,3.17 -16.08,375.78 375.78,0 0,1 -1.86,-45.94 1,1 0,0 0,-2 0Z" stroke-opacity="0.4"/>
    <path fill-opacity="0.4" fill="#f7f8f8"
        d="M39.71,424.23c-1.55,9.69 -6.3,18.2 -9.27,27.45a61.47,61.47 0,0 0,-2 29.2c1.89,11 5,21.54 6.13,32.65a177.56,177.56 0,0 1,0.11 32.57c-0.1,1.27 1.88,1.27 2,0 1.66,-20.63 -0.61,-40 -5.15,-60.12 -2.56,-11.32 -2.75,-22.63 0.83,-33.77 3,-9.25 7.72,-17.76 9.27,-27.45 0.2,-1.25 -1.71,-1.79 -1.91,-0.53Z" stroke-opacity="0.4"/>
    <path fill-opacity="0.4" fill="#f7f8f8"
        d="M34.86,544.53a26,26 0,0 1,-4.22 12c-2.57,3.87 -6.3,5.81 -9.24,9.14s0.18,4.84 3.4,5.74c9.49,2.65 29.27,3 33,-9.06 0.38,-1.22 -1.53,-1.74 -1.91,-0.53 -2.08,6.68 -11.87,8.67 -17.8,9.09a37.17,37.17 0,0 1,-9.25 -0.57c-1,-0.17 -3.74,-0.32 -4.46,-1.1 -1.54,-1.64 -0.26,-2.67 0.54,-3.75 2.43,-3.31 6,-5.52 8.17,-9.21a28.1,28.1 0,0 0,3.7 -11.7c0.13,-1.27 -1.86,-1.26 -2,0Z" stroke-opacity="0.4"/>
    <path fill-opacity="0.4" fill="#f7f8f8"
        d="M104.06,293.28c-1.92,2.53 -2.58,6 -3.41,9 -1.25,4.46 -2.27,9 -3.22,13.51 -2,9.43 -3.56,18.92 -5.18,28.42 -3.16,18.53 -6.32,37.2 -12.35,55.07C77,407.77 72.69,415.6 69.77,424a84.1,84.1 0,0 0,-5 25.93C64.46,470.29 58.79,490 56,510c-1.44,10.2 -2.19,20.56 -1,30.83 1,8.57 5,19.21 -2.87,25.63 -0.57,0.46 0,1.55 0.74,1.27 5.58,-2.29 6.88,-7.74 6.62,-13.35 -0.4,-8.77 -2.54,-17.22 -2.38,-26.08 0.37,-20.89 6.41,-41.12 9.14,-61.73 1.3,-9.79 0.32,-20.08 2.91,-29.6 1.11,-4.07 1.9,-8.28 3.28,-12.27 1.61,-4.65 4,-9 5.87,-13.52 7.39,-17.58 11.34,-36.36 14.54,-55.09 1.87,-11 3.55,-21.93 5.51,-32.87q1.39,-7.73 3,-15.4c1,-4.61 1.36,-10.08 3.14,-14.42 0.1,-0.25 -0.26,-0.35 -0.4,-0.17Z" stroke-opacity="0.4"/>
    <path fill-opacity="0.4" fill="#f7f8f8"
        d="M103.82,293.89c8,22.74 11,46.6 14.82,70.28A297.61,297.61 0,0 0,126 399.41c3.25,11.36 8.6,22.15 10.76,33.81 2.2,11.86 2.32,24 4.49,35.94 2.2,12.1 5.15,24.05 7.34,36.16 2.22,12.28 3.73,24.86 2.54,37.34 -0.51,5.36 -2.2,10.46 -2.84,15.75 -0.43,3.54 0.67,5.5 2.73,8.23 1.89,2.5 3.55,4.81 6.55,6 4.87,1.86 10.27,1.59 15.3,0.58 3.48,-0.7 8.68,-1.26 10.59,-4.69 1.63,-2.92 1.46,-6.52 1.19,-9.71a1,1 0,0 0,-2 0c-0.22,4 0.19,8.07 -3.92,10.27 -4.63,2.47 -12.37,3.12 -17.38,2.07 -4.32,-0.9 -7.19,-3.47 -9.38,-7.27 -2.51,-4.34 -0.22,-9.11 0.6,-13.72 3.67,-20.64 -0.6,-41.51 -4.9,-61.7 -2.41,-11.3 -4.93,-22.6 -6.24,-34.09 -1.13,-9.93 -1.36,-19.84 -4.25,-29.48 -3.07,-10.24 -7.35,-20 -10.07,-30.4s-4.63,-21.11 -6.36,-31.78c-3.78,-23.42 -6.59,-47.19 -15.9,-69.21 -0.25,-0.6 -1.27,-0.17 -1.06,0.45Z" stroke-opacity="0.4"/>
    <path fill-opacity="0.4" fill="#f7f8f8"
        d="M155.43,277.22c2.13,20.46 5.51,40.58 5.91,61.21A260.37,260.37 0,0 1,160 371.14c-1,9.31 -3,18.44 0.3,27.57 1.62,4.54 4.32,8.37 4.92,13.26s-0.23,10.19 1,15.12c1,3.77 3.15,7.12 5,10.5 2.74,5 4,10.29 4.89,15.92 3.12,19.28 0.59,38.75 -2.92,57.76 -1.37,7.41 -4.08,16.84 -1.31,24.19 3,8 9.32,15.63 10,24.39 0.12,1.63 2.68,1.65 2.56,0 -0.48,-7.1 -4.34,-14.12 -7.53,-20.36 -1.88,-3.67 -3.46,-6.6 -3.43,-10.89a79.44,79.44 0,0 1,1.62 -13c3.1,-17.63 6,-35 4.77,-53 -0.64,-9.06 -1.92,-18.34 -6.28,-26.41 -2.88,-5.33 -5.16,-9.79 -5.35,-16 -0.14,-4.59 0.12,-9.16 -1.4,-13.56 -1.4,-4.07 -3.83,-7.61 -4.84,-11.84 -1.47,-6.18 -0.77,-12 0,-18.18a241.58,241.58 0,0 0,2 -30.89c0,-22.66 -1.56,-46.74 -7.77,-68.65 -0.12,-0.44 -0.88,-0.38 -0.83,0.11Z" stroke-opacity="0.4"/>
    <path fill-opacity="0.4" fill="#f7f8f8"
        d="M81.46,52.61c0.91,1.35 1.85,2.68 2.66,4.1s1.1,3.07 1.83,4.55c0.15,0.3 0.54,0.17 0.64,-0.08 1.27,-3 -2.86,-6.9 -4.58,-9 -0.25,-0.31 -0.77,0.1 -0.55,0.43Z" stroke-opacity="0.4"/>
    <path fill-opacity="0.4" fill="#f7f8f8"
        d="M120.22,60.75a0.3,0.3 0,0 0,0 -0.61,0.3 0.3,0 0,0 0,0.61Z" stroke-opacity="0.4"/>
</svg>
