<svg height="65" viewBox="0 0 65 65" width="65" xmlns="http://www.w3.org/2000/svg"><g fill="#50e3c2"><path d="m45.77 59.4c.66.16 1.11.57 1 .91s-.71.48-1.37.32-1.11-.57-1-.91.71-.48 1.37-.32z"/><path d="m43.09 55.45c.61.14 1 .5.94.8s-.66.42-1.26.28-1-.5-.94-.8.65-.43 1.26-.28z"/><path d="m48.54 64.18c.42.1.72.36.65.57s-.46.3-.88.2-.72-.36-.65-.57.45-.31.88-.2z"/><path d="m40.64 52.2a.59.59 0 0 1 .62.29c.09.2 0 .4-.3.43a.59.59 0 0 1 -.62-.29c-.09-.2.04-.39.3-.43z"/><path d="m53 59.38c.51.12.87.43.79.69s-.56.36-1.07.24-.87-.43-.79-.69.58-.36 1.07-.24z"/><path d="m50 55.6c.47.1.79.36.72.57s-.5.3-1 .2-.72-.37-.72-.57.54-.3 1-.2z"/><path d="m56.31 64a.71.71 0 0 1 .44.69c0 .26-.31.37-.59.24a.71.71 0 0 1 -.44-.69c.05-.24.28-.36.59-.24z"/><path d="m47.16 52.2a.59.59 0 0 1 .62.29c.09.2 0 .4-.3.43a.59.59 0 0 1 -.62-.29c-.09-.2.05-.39.3-.43z"/><path d="m60.36 59.71c.33.08.56.29.51.46s-.36.24-.68.16-.56-.29-.51-.46.32-.25.68-.16z"/><path d="m56.76 55.76c.33.08.56.29.51.46s-.36.24-.68.16-.56-.29-.51-.46.35-.24.68-.16z"/><path d="m53.81 52.5c.24.06.4.22.36.35s-.25.18-.49.12-.4-.22-.36-.35.26-.19.49-.12z"/><path d="m64.48 64.73a.26.26 0 1 1 .52 0 .26.26 0 1 1 -.52 0"/><path d="m19.23 59.39c-.66.16-1.11.57-1 .92s.71.48 1.37.32 1.11-.57 1-.92-.71-.48-1.37-.32z"/><path d="m21.91 55.43c-.61.14-1 .5-.94.8s.66.42 1.26.28 1-.5.94-.8-.66-.42-1.26-.28z"/><path d="m16.46 64.18c-.42.1-.72.36-.65.57s.46.3.88.2.72-.36.65-.57-.45-.31-.88-.2z"/><path d="m24.36 52.17a.59.59 0 0 0 -.62.29c-.09.2 0 .4.3.43a.59.59 0 0 0 .62-.29c.09-.19-.04-.39-.3-.43z"/><path d="m12 59.38c-.51.12-.87.43-.79.69s.56.36 1.07.24.87-.43.79-.69-.58-.37-1.07-.24z"/><path d="m15 55.59c-.47.1-.79.36-.72.57s.5.3 1 .2.72-.36.72-.57-.54-.31-1-.2z"/><path d="m8.69 64a.71.71 0 0 0 -.44.7c0 .26.31.37.59.24a.71.71 0 0 0 .44-.69c-.05-.25-.28-.36-.59-.25z"/><path d="m17.84 52.17a.59.59 0 0 0 -.62.29c-.09.2 0 .4.3.43a.59.59 0 0 0 .62-.29c.09-.19-.05-.39-.3-.43z"/><path d="m4.64 59.7c-.33.08-.56.29-.51.46s.36.24.68.16.56-.29.51-.46-.32-.24-.68-.16z"/><path d="m8.25 55.75c-.33.08-.56.29-.51.46s.36.24.68.16.56-.29.51-.46-.35-.25-.68-.16z"/><path d="m11.19 52.47c-.23.06-.4.22-.36.35s.25.18.49.12.4-.22.36-.35-.25-.18-.49-.12z"/><path d="m.23 64.5a.36.36 0 0 0 -.22.35.19.19 0 0 0 .23.15h.07a.36.36 0 0 0 .22-.35.19.19 0 0 0 -.23-.15z"/></g></svg>