<svg xmlns="http://www.w3.org/2000/svg" viewBox="0 0 65 65" width="65" height="65">
    <path
      d="M42.43,0L25.07,0c-2.24,0 -4.32,2.31 -4.61,5.13L15.08,59.87C14.78,62.69 17.33,65 20.73,65h26c3.41,0 6,-2.31 5.66,-5.13L47,5.13C46.75,2.31 44.68,0 42.43,0ZM50.16,60.11c0.14,1.55 -1.26,2.82 -3.1,2.82L20.28,62.93c-1.85,0 -3.24,-1.27 -3.1,-2.82L22,4.84A2.91,2.91 0,0 1,24.54 2h2.56a0.15,0.15 0,0 1,0.13 0.17h0c-0.06,1.17 0.46,2.12 1.43,2.12L38.88,4.29c1,0 1.36,-0.95 1.31,-2.11h0A0.15,0.15 0,0 1,40.32 2h2.54a2.9,2.9 0,0 1,2.53 2.82Z"
      fill="#fff"/>
  <path
      d="M51.33,63.12l0,-0.01l-0.01,0.01l0.01,0z"
      stroke-opacity="0.5"
      fill="#fff"
      fill-opacity="0.5"/>
  <path
      d="M20.28,62.93H47.06c1.85,0 3.24,-1.27 3.1,-2.82L45.39,4.84A2.9,2.9 0,0 0,42.86 2H40.32a0.15,0.15 0,0 0,-0.13 0.17c0.06,1.17 -0.34,2.11 -1.31,2.11H28.65c-1,0 -1.48,-1 -1.43,-2.12A0.15,0.15 0,0 0,27.09 2H24.54A2.91,2.91 0,0 0,22 4.84L17.18,60.11C17,61.66 18.44,62.93 20.28,62.93Z"
      stroke-opacity="0.5"
      fill="#fff"
      fill-opacity="0.5"/>
  <path
      d="M51.33,63.12l0,-0.01l-0.01,0.01l0.01,0z"
      stroke-opacity="0.5"
      fill="#fff"
      fill-opacity="0.5"/>
  <path
      d="M22,4.84 L17.18,60.11h0L22,4.84Z"
      stroke-opacity="0.5"
      fill="#fff"
      fill-opacity="0.5"/>
  <path
      d="M45.39,4.84A2.9,2.9 0,0 0,42.86 2H40.32a0.15,0.15 0,0 0,-0.13 0.17c0.06,1.17 -0.34,2.11 -1.31,2.11H28.65a1.25,1.25 0,0 1,-0.49 -0.11A212,212 0,0 0,48.41 39.75Z"
      stroke-opacity="0.5"
      fill="#fff"
      fill-opacity="0.5"/>
  <path
      d="M20.28,62.93H47.06c1.85,0 3.24,-1.27 3.1,-2.82L48.41,39.75A212,212 0,0 1,28.16 4.21a2,2 0,0 1,-0.94 -2A0.15,0.15 0,0 0,27.09 2H24.54A2.91,2.91 0,0 0,22 4.84L17.18,60.11C17,61.66 18.44,62.93 20.28,62.93Z"
      stroke-opacity="0.5"
      fill="#fff"
      fill-opacity="0.5"/>
  <path
      d="M20.28,62.93H47.06c1.85,0 3.24,-1.27 3.1,-2.82L48.41,39.75A212,212 0,0 1,28.16 4.21a2,2 0,0 1,-0.94 -2A0.15,0.15 0,0 0,27.09 2H24.54A2.91,2.91 0,0 0,22 4.84L17.18,60.11C17,61.66 18.44,62.93 20.28,62.93Z"
      stroke-opacity="0.2"
      fill="#fff"
      fill-opacity="0.2"/>
</svg>
