<svg xmlns="http://www.w3.org/2000/svg" viewBox="0 0 102.04 556.23" width="102" height="556">
     <path fill="#fff" d="M15,130.79c2.1,-3.74 -1.55,-9.7 -5.31,-10.81 -0.44,-0.13 -1,0.43 -0.64,0.84 1.23,1.6 2.77,2.88 3.73,4.7s0.43,3.62 1.29,5.28a0.54,0.54 0,0 0,0.93 0Z"/>
    <path fill="#fff" d="M72.09,35.89c5.51,-8.39 2,-20.06 -4.59,-26.77C59.44,1 46.34,-1.87 35.44,1.21 24.35,4.34 18.53,13 17.2,24a49.65,49.65 0,0 0,1 18.43,40 40,0 0,0 3.17,8.16c2.21,4.32 2.52,7.33 2.39,12.07 0,0.49 0.76,0.75 1,0.26 3.8,-8.59 -3.3,-15.25 -4.94,-23.6C17.65,28.43 18.58,14 28.32,6.93 37.55,0.26 51.21,0.79 60.82,6.39 71.3,12.51 75.35,24.27 71.19,35.51c-0.2,0.55 0.61,0.82 0.9,0.38Z"/>
    <path fill="#fff" d="M71.14,34.83c-0.6,2.45 0.25,4.33 1.72,6.33 1.58,2.15 7.83,5.38 3.17,7.2 -1.16,0.45 -2.44,0.25 -3.1,1.5 -1.17,2.21 1.54,4.08 1.34,6.12s-1.56,1.58 -2.06,3c-0.23,0.63 0.2,0.86 0.09,1.56 -0.37,2.31 -1.93,2.42 -2.17,4.57 -0.1,0.85 0.64,1.67 0.59,2.43 -0.42,6.62 -6,2.22 -8.26,1.65s-3.13,-0.29 -4.55,1.34c-0.44,0.51 0.13,1.39 0.76,1C62.49,69 71,76.75 72.19,69.5a11.57,11.57 0,0 0,-0.13 -2.36c0,-1.22 -0.32,-2.09 0.59,-3.34 0,0 1.06,-0.58 1.17,-0.85s0.27,-0.76 0.43,-1.19S74,61 74.05,60.58c0.18,-0.86 0.5,-0.91 1,-1.75 1,-1.7 1.43,-2.19 0.75,-4.39 -0.37,-1.18 -1.06,-1.76 -0.54,-3.06 0.71,-1.75 0.52,-0.5 1.74,-1.25A15.07,15.07 0,0 0,79 49c1.25,-1 2.05,-2.31 1.27,-3.84s-3.43,-2.62 -4.47,-3.55a11.93,11.93 0,0 1,-4.11 -6.82c0,-0.28 -0.48,-0.26 -0.54,0Z"/>
    <path fill="#fff" d="M58.65,69.88c-2.24,1.47 -1.92,3.11 -2,5.59 -0.12,3.67 -2.89,4.68 -4.58,7.46 -2.61,4.3 -0.83,10.45 1.87,14.29a0.44,0.44 0,0 0,0.82 -0.22c-0.05,-6 -4.45,-9.69 0.58,-15.27a10.31,10.31 0,0 0,2.45 -3.26c1.08,-2.75 -0.8,-5.38 1.34,-8 0.26,-0.32 -0.07,-0.88 -0.47,-0.61Z"/>
    <path fill="#fff" d="M24.39,57.58C22.19,67.78 18,77 13.94,86.58c-3.58,8.33 -8.44,17.07 -10.09,26.06 -1.55,8.42 -0.37,17.31 1.09,25.66 1.71,9.79 3.44,20.2 6.73,29.59 0.21,0.61 1.26,0.57 1.2,-0.16 -1.73,-18.91 -11.6,-38.67 -6.19,-57.81 2.53,-9 7.12,-17.55 10.71,-26.13 3.48,-8.32 7.62,-16.9 7.76,-26.1a0.38,0.38 0,0 0,-0.75 -0.1Z"/>
    <path fill="#fff" d="M51.36,88.45a60.74,60.74 0,0 0,7.93 21c4.45,7.38 10.29,13.38 13.41,21.57 2.74,7.21 4.07,14.88 5.22,22.47 0.74,4.87 1.69,9.76 0.45,14.64 -1.12,4.4 -3.68,8.45 -5.84,12.4a0.73,0.73 0,0 0,1.25 0.73c5.16,-7.28 7.94,-14.08 6.83,-23.08a141.87,141.87 0,0 0,-4.42 -23c-2.37,-8 -6.27,-14.34 -11.23,-20.92A77,77 0,0 1,52.29 88.19a0.48,0.48 0,0 0,-0.93 0.26Z"/>
    <path fill="#fff" d="M77.51,173c-2.61,3.54 -5.69,6.92 -5.61,11.62 0,3.12 1.08,6.07 0.9,9.24 -0.2,3.63 -1.27,7.13 -1.49,10.75 0,0.68 0.93,0.74 1.14,0.15a35.29,35.29 0,0 0,1.89 -14.62c-0.39,-3.66 -1.29,-6.6 0,-10.23a49.13,49.13 0,0 1,3.44 -6.75,0.16 0.16,0 0,0 -0.28,-0.17Z"/>
    <path fill="#fff" d="M48.64,109.53c-0.24,7.32 -0.2,14.56 -1.55,21.8 -1.15,6.13 -3.46,12 -3.67,18.27 -0.24,7.07 0.05,14 -0.67,21 -0.65,6.39 -1.73,12.86 -1.66,19.29a0.54,0.54 0,0 0,1.06 0.14c3,-13.29 2.78,-27 3.35,-40.46 0.31,-7.26 3.08,-14.21 4,-21.41a55.69,55.69 0,0 0,-0.38 -18.72c-0.06,-0.27 -0.45,-0.19 -0.46,0.06Z"/>
    <path fill="#fff" d="M14.11,126.1c-1.14,16.81 0.21,33.73 2.1,50.44a200.89,200.89 0,0 1,1.14 23.26c0,6.46 0.36,12.69 3.58,18.42 0.42,0.74 1.75,0.23 1.41,-0.6 -2.79,-6.87 -2.86,-14 -2.79,-21.26A187.29,187.29 0,0 0,18 173.61c-1.77,-15.8 -2.27,-31.65 -3.25,-47.5a0.31,0.31 0,0 0,-0.62 0Z"/>
    <path fill="#fff" d="M18.86,213.57c1.84,9.25 6.9,18.32 10.38,27.07 3.32,8.36 5.74,17.53 10,25.46 0.14,0.27 0.63,0.16 0.6,-0.16 -1.08,-9.15 -5.33,-18.28 -8.71,-26.78s-6.48,-18.29 -11.79,-25.78a0.26,0.26 0,0 0,-0.47 0.2Z"/>
    <path fill="#fff" d="M41.05,189.19c4.06,32.05 4.5,65.86 15.6,96.54a0.38,0.38 0,0 0,0.74 -0.2c-2.94,-17.38 -7.22,-34.42 -9.24,-52 -1.69,-14.73 -1.33,-30.34 -6.34,-44.46 -0.14,-0.38 -0.83,-0.36 -0.77,0.1Z"/>
    <path fill="#fff" d="M20.55,216.5c0.46,2.18 0.88,5.17 2.5,6.82a0.4,0.4 0,0 0,0.68 -0.28,9.11 9.11,0 0,0 -0.95,-3.06c-0.51,-1.22 -1,-2.45 -1.47,-3.69a0.4,0.4 0,0 0,-0.77 0.21Z"/>
    <path fill="#fff" d="M20.74,216.87a32.15,32.15 0,0 0,1.13 4,7.48 7.48,0 0,0 1.51,3 0.32,0.32 0,0 0,0.53 -0.22A8,8 0,0 0,23 220a23.46,23.46 0,0 0,-1.68 -3.4,0.32 0.32,0 0,0 -0.59,0.25Z"/>
    <path fill="#fff" d="M20.85,216.69a48.47,48.47 0,0 0,1.52 4.72,6.69 6.69,0 0,0 1.84,3c0.19,0.15 0.41,-0.06 0.43,-0.25a7.16,7.16 0,0 0,-1 -3.63c-0.65,-1.44 -1.45,-2.74 -2.21,-4.11a0.31,0.31 0,0 0,-0.57 0.24Z"/>
    <path fill="#fff" d="M20.34,216.95c0.42,1.17 0.72,2.4 1.1,3.58a5.36,5.36 0,0 0,1.55 3,0.46 0.46,0 0,0 0.68,-0.28c0.35,-1.35 -0.52,-2.8 -1,-4A5.5,5.5 0,0 0,21 216.4a0.49,0.49 0,0 0,-0.71 0.55Z"/>
    <path fill="#fff" d="M21.36,217.49c0.42,3.29 1.14,7.94 3.85,10.16a0.33,0.33 0,0 0,0.55 -0.32,26.36 26.36,0 0,0 -1.68,-5.19A39.54,39.54 0,0 0,22 217.31c-0.15,-0.29 -0.7,-0.18 -0.66,0.18Z"/>
    <path fill="#fff" d="M72.4,197.18a90.25,90.25 0,0 0,-0.92 24.49A126.44,126.44 0,0 1,71 246.72c-2,16.92 -5,33.93 -6.27,50.9 -0.05,0.73 1,0.81 1.23,0.17 2.44,-7.78 2.78,-16.42 3.77,-24.47q1.51,-12.35 3,-24.69a125,125 0,0 0,0.83 -25.2c-0.69,-8.63 -1.48,-17.54 -0.69,-26.18a0.26,0.26 0,0 0,-0.51 -0.07Z"/>
    <path fill="#fff" d="M53.62,275.88a89.9,89.9 0,0 0,8.6 22.42c2.52,4.85 2.8,9.32 2.51,14.62 -0.09,1.61 0.39,5.71 -0.43,7.05s-2.35,1.56 -3.75,2.25a0.85,0.85 0,0 0,0.65 1.54,30.65 30.65,0 0,1 4.26,-1.07 1,1 0,0 0,0.74 -1c0.59,-7.22 2,-15.28 -1,-22.13 -1.64,-3.7 -4,-7 -5.71,-10.69 -2,-4.29 -3.77,-8.72 -5.48,-13.13a0.18,0.18 0,0 0,-0.35 0.1Z"/>
    <path fill="#fff" d="M65,321c-1.83,1.76 -6.88,1.84 -9.13,1.73 -3.41,-0.17 -5.95,-1.77 -8.87,-3.29 -2.72,-1.42 -5.51,-1.9 -4.51,-5.47 0.62,-2.19 1.82,-4.18 2.41,-6.38a0.4,0.4 0,0 0,-0.57 -0.44c-2.29,1.3 -3.73,5.65 -4,8.08 -0.33,3.37 2.39,4.06 5.06,5.34 4,1.92 7.08,4 11.76,3.72 2.4,-0.13 6.68,-0.7 8.36,-2.76 0.31,-0.37 -0.18,-0.89 -0.54,-0.54Z"/>
    <path fill="#fff" d="M39,261.86c-0.15,7.76 -1,15.28 0.06,23A73.24,73.24 0,0 0,42 297.6c0.68,2.08 1.8,4.23 1.85,6.45 0,1.94 -0.71,3.62 -0.61,5.56a0.52,0.52 0,0 0,1 0.26c4.2,-6.63 -1.15,-15 -2.47,-21.85a78.77,78.77 0,0 1,-1.36 -16.41c0.06,-3.45 0.56,-6.65 -0.83,-9.88 -0.11,-0.26 -0.5,-0.11 -0.51,0.14Z"/>
    <path fill="#fff" d="M66.11,294.13c-0.79,1.52 -2.1,4 -1.39,5.68a0.33,0.33 0,0 0,0.6 0.08,6.85 6.85,0 0,0 0.56,-2.63 22.6,22.6 0,0 1,0.61 -3,0.21 0.21,0 0,0 -0.39,-0.16Z"/>
    <path fill="#fff" d="M39.67,263.58a16.85,16.85 0,0 0,-3.42 -9.21c-0.21,-0.25 -0.6,0 -0.52,0.3 0.81,3 2.21,6 3.32,9 0.12,0.31 0.67,0.3 0.63,-0.09Z"/>
    <path fill="#fff" d="M10.55,159.93c0.84,9.56 2.79,19.88 7,28.58 0.35,0.73 1.44,0.2 1.27,-0.54 -2.18,-9.43 -5.25,-18.71 -7.53,-28.14 -0.1,-0.39 -0.76,-0.32 -0.72,0.1Z"/>
    <path fill="#fff" d="M19.4,209.33c-2.16,9.28 -7.89,17.26 -11.83,25.82A77.63,77.63 0,0 0,0.63 257.83C-1,271.3 0.2,289.39 9.31,300.19c0.18,0.22 0.61,0 0.5,-0.29 -6,-14.75 -9.61,-30.14 -6.39,-46.16 1.76,-8.74 5.38,-17 9.34,-24.94 3.15,-6.33 6.36,-12.24 7.07,-19.41 0,-0.25 -0.37,-0.3 -0.43,-0.06Z"/>
    <path fill="#fff" d="M7.41,296.94c2.88,6.31 2.1,15 2.38,21.74 0.41,9.78 1.32,19.51 2.62,29.21s3,19.45 4.7,29.13c0.92,5.11 1.9,10.22 2.78,15.34a53.52,53.52 0,0 1,0.34 12.55c0,0.76 1,0.82 1.26,0.17 2.83,-8 -0.14,-16.72 -1.59,-24.8 -2.06,-11.45 -4.07,-22.92 -5.59,-34.46 -1.35,-10.22 -2.09,-20.45 -2.66,-30.73 -0.31,-5.67 -0.07,-13.7 -3.72,-18.45a0.3,0.3 0,0 0,-0.53 0.31Z"/>
    <path fill="#fff" d="M63.79,322.92a367.51,367.51 0,0 0,-6.52 41.58c-0.72,7 -0.89,14 -1.51,21 -0.54,6.11 -0.79,12.9 -2.76,18.7 -0.27,0.8 0.84,1.13 1.27,0.54 3.27,-4.47 2.55,-11 3.25,-16.24 0.89,-6.66 0.86,-13.46 1.46,-20.16 1.37,-15.18 4,-30.2 5.51,-45.36 0,-0.4 -0.62,-0.49 -0.71,-0.1Z"/>
    <path fill="#fff" d="M21.88,401.62a104,104 0,0 0,-9.73 31.53c-1.57,11.74 0.22,22.41 2.73,33.84 4.92,22.44 6.66,47 3.62,69.79 -0.07,0.52 0.72,0.57 0.87,0.12 3.37,-9.85 3.17,-20.43 2.56,-30.71a309.79,309.79 0,0 0,-3.44 -32.69c-2,-12.12 -5.66,-23.43 -4.71,-35.89 0.93,-12.3 4.9,-24.11 8.59,-35.8 0.09,-0.28 -0.35,-0.48 -0.49,-0.2Z"/>
    <path fill="#fff" d="M56.74,383.9a698.83,698.83 0,0 0,-10.12 71.2c-1.15,12.17 -2,24.38 -2.45,36.6 -0.19,5.7 -0.3,11.41 -0.18,17.11 0.1,4.82 0.58,9.58 3.9,13.29 0.5,0.55 1.22,-0.15 1,-0.74 -4.62,-10.39 -3,-23.1 -2.5,-34.21 0.48,-11.53 1.33,-23 2.4,-34.52 2.15,-22.94 5.09,-45.83 8.33,-68.64 0,-0.22 -0.3,-0.33 -0.35,-0.1Z"/>
    <path fill="#fff" d="M45.12,515.79c0.87,5.25 4.4,8.7 8.34,12a113.06,113.06 0,0 0,15.21 10.76,82.69 82.69,0 0,0 16.85,7.65c2.89,0.91 6.93,1 9.57,2.23 3.45,1.67 4.19,3.07 2.29,4.54 -2.29,1.77 -5.06,1.12 -7.65,0.7 -7.2,-1.16 -13.9,1.47 -21.18,0 -6.79,-1.36 -13.2,-3.68 -20.17,-4 -6.81,-0.34 -13.38,1.27 -20.13,1.3 -5,0 -9.19,-2.16 -9.77,-7.64 -0.41,-3.91 1.43,-7.75 2.4,-11.45a0.64,0.64 0,0 0,-1.17 -0.49c-3.17,4.85 -5.16,13 -1.12,17.92 3.54,4.31 9.4,3.92 14.4,3.33a78.67,78.67 0,0 1,30.58 1.93,46.89 46.89,0 0,0 11,1.89 30,30 0,0 0,5.71 -0.57,28.58 28.58,0 0,1 9.72,-0.09c3.39,0.48 10.12,0.67 11.73,-3.41 2.31,-5.84 -8.16,-6.38 -10.85,-7a78.78,78.78 0,0 1,-23.95 -10.44,141.28 141.28,0 0,1 -12,-8.56c-3.77,-3 -7.82,-5.89 -9.22,-10.72a0.28,0.28 0,0 0,-0.54 0.15Z"/>
</svg>
