<svg height="32" viewBox="0 0 1024 1024" width="32" xmlns="http://www.w3.org/2000/svg"><path d="m544.059897 959.266898h-64.949141c-228.633593 0-415.697442-187.063849-415.697442-415.697442v-64.949141c0-228.633593 187.063849-415.697442 415.697442-415.697442h64.949141c228.633593 0 415.697442 187.063849 415.697442 415.697442v64.949141c-.001024 228.633593-187.064873 415.697442-415.697442 415.697442z" fill="#fff"/><path d="m589.430304 275.712864c-4.975059-1.674053-10.010527-3.212952-15.114595-4.58803-20.295455-5.468572-41.601485-8.46446-63.627306-8.46446-9.413602 0-18.679764.602045-27.810773 1.647432-22.345273 2.561761-43.783384 8.095861-63.900683 16.237797l116.596989 116.598013 10.231686 10.23271 21.621386 21.621386c2.318076 1.673029 4.562433 3.441279 6.725903 5.300655 5.733758 4.925912 10.842946 10.533732 15.276369 16.674996v-175.260499zm-15.249748 79.907083-.249828-.249828h.249828z" fill="#e57259"/><path d="m730.576991 398.954869c-2.334459-4.700658-4.807142-9.350121-7.443646-13.932008-10.484586-18.217992-23.431616-35.401859-39.005935-50.977202-6.656278-6.656278-13.634057-12.784232-20.829923-18.49956-17.611851-13.989345-36.683763-25.234678-56.666934-33.70221l-.001024 164.89366v14.470572 30.577311c.455629 2.821828.792487 5.660038 1.008528 8.504392.571328 7.537844.219111 15.115619-.989074 22.593053zm-67.285648 45.719551v-.35324l.177133.177132z" fill="#5659a4"/><path d="m743.379653 588.809829c1.673029-4.974035 3.212952-10.010527 4.588031-15.114595 5.468572-20.295455 8.463436-41.602509 8.463436-63.627306 0-9.413602-.601021-18.679764-1.647432-27.810773-2.560737-22.344249-8.095861-43.783384-16.237797-63.900683l-116.598013 116.598013-10.231686 10.231686-21.621387 21.621387c-1.674053 2.318076-3.442302 4.562433-5.300654 6.725902-4.925912 5.733758-10.532708 10.843969-16.674996 15.276369zm-79.907082-15.248724.249828-.249828v.249828z" fill="#5c94cf"/><path d="m618.76769 731.183131c4.700658-2.334459 9.350121-4.807142 13.932008-7.443646 18.216968-10.484586 35.401859-23.431616 50.976178-39.006959 6.656278-6.656278 12.784232-13.634057 18.49956-20.829923 13.989345-17.611851 25.234678-36.683763 33.70221-56.666933h-164.89366-14.470572-30.577311c-2.822852.455629-5.660038.792487-8.504391 1.007503-7.537844.571328-15.115619.220135-22.593054-.98805zm-45.720575-67.286671h.354264l-.177132.177132z" fill="#71c6d5"/><path d="m431.232854 743.60286c4.974035 1.673029 10.010527 3.212952 15.114595 4.588031 20.295455 5.468572 41.602509 8.46446 63.627306 8.46446 9.413602 0 18.679764-.602045 27.810773-1.647432 22.344249-2.561761 43.783384-8.095861 63.900683-16.237797l-116.598013-116.598013-10.231686-10.23271-21.621386-21.621387c-2.318076-1.673029-4.562433-3.442302-6.725903-5.300654-5.733758-4.925912-10.843969-10.533732-15.276369-16.674996zm15.248724-79.906058.249828.249828h-.249828z" fill="#78be59"/><path d="m289.8947 619.182364c2.334459 4.700658 4.807142 9.350121 7.443646 13.932007 10.484586 18.216968 23.431616 35.401859 39.006959 50.976179 6.656278 6.656278 13.634057 12.784232 20.829923 18.49956 17.610828 13.988321 36.683763 25.234678 56.666934 33.702209l.001024-164.89366v-14.470571-30.576287c-.455629-2.822852-.792487-5.660038-1.008527-8.504392-.571328-7.537844-.219111-15.115619.989073-22.593053zm67.285648-45.719552v.354264l-.177132-.177132z" fill="#b2d361"/><path d="m277.252788 430.599069c-1.673029 4.975059-3.212952 10.010527-4.58803 15.114595-5.468572 20.295455-8.46446 41.602509-8.46446 63.627306 0 9.413602.602045 18.679764 1.647431 27.810773 2.561761 22.345273 8.095861 43.783384 16.237797 63.900683l116.599037-116.598013 10.23271-10.231686 21.621387-21.621386c1.673029-2.318076 3.442302-4.562433 5.300654-6.725903 4.925912-5.733758 10.533732-10.842946 16.674996-15.276369zm79.906058 15.249748-.249828.249828v-.250852z" fill="#e7d55c"/><path d="m400.690355 289.095045c-4.700658 2.334459-9.350121 4.807142-13.932008 7.443647-18.216968 10.484586-35.401859 23.431616-50.976179 39.006959-6.656278 6.656278-12.784232 13.634057-18.49956 20.829923-13.989345 17.610828-25.234678 36.683763-33.702209 56.666933h164.89366 14.470571 30.577312c2.822852-.455629 5.660038-.792487 8.504391-1.007503 7.537844-.571328 15.115619-.220135 22.593054.988049zm45.720575 67.285648h-.35324l.177132-.177132z" fill="#e9ad5a"/></svg>