<svg height="200" viewBox="0 0 1024 1024" width="200" xmlns="http://www.w3.org/2000/svg"><path d="m512 0c-282.763662 0-512 229.236338-512 512s229.236338 512 512 512 512-229.224912 512-512-229.224912-512-512-512zm-6.443844 190.801776c94.681097 0 171.710173 75.886551 171.710173 169.185192s-77.029076 169.208042-171.710173 169.208042-171.698748-75.909401-171.698749-169.185191 77.029077-169.208043 171.698749-169.208043zm287.58512 580.837168c0 61.536429-100.473702 61.536429-216.817084 61.536429h-128.659809c-121.107714 0-216.794234 0-216.794234-61.536429v-12.670609c0-117.680137 97.240354-213.48091 216.794234-213.480909h128.659809c119.553879 0 216.817084 95.777922 216.817084 213.480909z" fill="#c3cfe2"/><path d="m576.324192 545.487426h-128.659809c-119.553879 0-216.794234 95.755071-216.794234 213.480909v12.670609c0 61.536429 95.68652 61.536429 216.794234 61.536429h128.659809c116.343383 0 216.817084 0 216.817084-61.536429v-12.670609c0-117.702988-97.263205-213.48091-216.817084-213.480909zm-70.768036-16.292416c94.681097 0 171.710173-75.875126 171.710173-169.185191s-77.029076-169.208043-171.710173-169.208043-171.698748 75.932252-171.698749 169.208043 77.029076 169.185192 171.698749 169.185191z" fill="#fff"/></svg>