<svg height="32" viewBox="0 0 1024 1024" width="32" xmlns="http://www.w3.org/2000/svg"><g fill="#efb336"><path d="m300.8 298.666667c-2.133333 0-2.133333 0 0 0l-2.133333 424.533333s0 2.133333 2.133333 2.133333h424.533333s2.133333 0 2.133334-2.133333v-422.4s0-2.133333-2.133334-2.133333zm40.533333 76.8c8.533333-8.533333 21.333333-8.533333 29.866667 0l34.133333 36.266666 59.733334-61.866666c8.533333-8.533333 21.333333-8.533333 29.866666 0s8.533333 21.333333 0 29.866666l-74.666666 76.8c-4.266667 4.266667-8.533333 6.4-14.933334 6.4s-10.666667-2.133333-14.933333-6.4l-49.066667-49.066666c-8.533333-8.533333-8.533333-23.466667 0-32zm76.8 298.666666c-46.933333 0-83.2-38.4-83.2-83.2 0-46.933333 38.4-83.2 83.2-83.2s83.2 38.4 83.2 83.2c0 46.933333-38.4 83.2-83.2 83.2zm249.6-57.6h-121.6c-12.8 0-21.333333-8.533333-21.333333-21.333333s8.533333-21.333333 21.333333-21.333333h121.6c12.8 0 21.333333 8.533333 21.333334 21.333333s-8.533333 21.333333-21.333334 21.333333zm0-153.6h-121.6c-12.8 0-21.333333-8.533333-21.333333-21.333333s8.533333-21.333333 21.333333-21.333333h121.6c12.8 0 21.333333 8.533333 21.333334 21.333333s-8.533333 21.333333-21.333334 21.333333z"/><path d="m377.6 590.933333a40.533333 40.533333 0 1 0 81.066667 0 40.533333 40.533333 0 1 0 -81.066667 0z"/><path d="m512 0c-283.733333 0-512 228.266667-512 512s228.266667 512 512 512 512-228.266667 512-512-228.266667-512-512-512zm256 723.2c0 23.466667-19.2 44.8-44.8 44.8h-422.4c-23.466667 0-44.8-19.2-44.8-44.8v-422.4c0-23.466667 19.2-44.8 44.8-44.8h424.533333c23.466667 0 44.8 19.2 44.8 44.8v422.4z"/></g></svg>