<svg height="200" viewBox="0 0 1024 1024" width="200" xmlns="http://www.w3.org/2000/svg"><g fill="#fff"><path d="m332 663.2c-9.6 9.6-9.6 25.6 0 35.2s25.6 9.6 35.2 0l349.6-356c9.6-9.6 9.6-25.6 0-35.2s-25.6-9.6-35.2 0z"/><path d="m681.6 698.4c9.6 9.6 25.6 9.6 35.2 0s9.6-25.6 0-35.2l-349.6-356c-9.6-9.6-25.6-9.6-35.2 0s-9.6 25.6 0 35.2z"/><path d="m516.8 1014.4c-277.6 0-503.2-225.6-503.2-503.2s225.6-504 503.2-504 503.2 225.6 503.2 503.2-225.6 504-503.2 504zm0-959.2c-251.2 0-455.2 204.8-455.2 456s204 455.2 455.2 455.2 455.2-204 455.2-455.2-204-456-455.2-456z"/></g></svg>