<svg height="32" viewBox="0 0 1024 1024" width="32" xmlns="http://www.w3.org/2000/svg"><g fill="#1296db"><path d="m689.38 369.87h-354.88l177.63 177.63z"/><path d="m504.7 569.52-184.55-184.42v269.03h383.58v-269.03l-184.43 184.42c-3.96 3.96-10.64 3.96-14.6 0z"/><path d="m512 64c-247.42 0-448 200.58-448 448s200.58 448 448 448 448-200.58 448-448-200.58-448-448-448zm226.72 288.93v318.51c0 9.89-7.92 17.57-17.56 17.57h-418.57c-9.4 0-17.31-7.68-17.31-17.57v-319.01c0-9.52 7.92-17.44 17.31-17.44h418.57c9.64 0 17.56 7.92 17.56 17.44z"/></g></svg>