<svg xmlns="http://www.w3.org/2000/svg" viewBox="0 0 214 224" height="24" width="24">
    <path fill="rgba(124,240,10,0.5)"
        fill-rule="nonzero"
        d="M28.245,167.74C28.245,184.94 74.391,216.848 110.648,211.347C146.906,205.846 184.506,175.038 190,167.74"
        stroke-opacity="0.5" stroke="#979797" stroke-width="1"/>
    <path fill="#00000000" fill-rule="nonzero"
        d="M15.06,97.724l23.073,0l0,16.504l-23.073,0"
        stroke="#FFFFFF" stroke-width="4"/>
    <path fill="#00000000" fill-rule="nonzero"
        d="M199.644,97.724l-23.073,0l-0,16.504l23.073,0"
        stroke="#FFFFFF" stroke-width="4"/>
    <path fill="#FFFFFF" fill-rule="nonzero"
        d="M38.133,105.426h138.438v2.201h-138.438z"
        stroke="#00000000" stroke-width="1"/>
    <path fill="#00000000" fill-rule="evenodd"
        d="M207.6,96.523C207.204,92.118 206.538,87.79 205.604,83.563C195.426,37.474 154.382,3 105.297,3C57.057,3 16.583,36.297 5.543,81.193C4.32,86.17 3.459,91.291 2.988,96.523"
        stroke="#FFFFFF" stroke-width="6"/>
    <path fill="#00000000" fill-rule="evenodd"
        d="M3.092,116.328C8.322,168.235 52.085,208.751 105.297,208.751C155.461,208.751 197.228,172.744 206.231,125.13C206.778,122.238 207.197,119.301 207.497,116.328"
        stroke="#FFFFFF" stroke-width="6"/>
    <path fill="#F24724" fill-rule="nonzero"
        d="M189.915,197.224L197.99,189.15L195.298,186.458L187.224,194.532L179.15,186.458L176.458,189.15L184.533,197.224L176.458,205.298L179.15,207.99L187.224,199.915L195.298,207.99L197.99,205.298L189.915,197.224ZM187.5,171C202.119,171 214,182.881 214,197.5C214,212.119 202.119,224 187.5,224C172.881,224 161,212.119 161,197.5C161,182.881 172.881,171 187.5,171Z"
        stroke="#00000000" stroke-width="1"/>
</svg>
