<svg xmlns="http://www.w3.org/2000/svg" viewBox="0 0 222 223" height="24" width="24">
    <path fill="#00000000" fill-rule="nonzero"
        d="M105.803,208.751C155.967,208.751 197.734,172.744 206.736,125.13C207.915,118.893 208.532,112.456 208.532,105.875C208.532,98.213 207.696,90.747 206.109,83.563C195.932,37.474 154.887,3 105.803,3C57.563,3 17.089,36.297 6.049,81.193C4.104,89.101 3.073,97.367 3.073,105.875C3.073,162.692 49.067,208.751 105.803,208.751Z"
        stroke="#FFFFFF" stroke-width="6"/>
    <path fill="#FFFFFF" fill-rule="nonzero"
        d="M106.5,106.5m-82.5,0a82.5,82.5 0,1 1,165 0a82.5,82.5 0,1 1,-165 0"
        stroke="#00000000" stroke-width="1"/>
    <path fill="#389E0D" fill-rule="nonzero"
        d="M191.715,201.241L185.024,194.55L182.347,197.227L191.716,206.596L194.393,203.92L194.392,203.918L209.562,188.748L206.885,186.071L191.715,201.241ZM195.5,170C210.137,170 222,181.863 222,196.5C222,211.137 210.132,223 195.5,223C180.868,223 169,211.132 169,196.5C169,181.868 180.863,170 195.5,170Z"
        stroke="#00000000" stroke-width="1"/>
</svg>
