<svg xmlns="http://www.w3.org/2000/svg" viewBox="0 0 219 219" height="24" width="24">
    <path fill="#D8D8D8"
        fill-rule="nonzero"
        d="M197.042,146.944C193.415,196.663 78.198,255.101 15.243,156.754C-0.534,122.733 7.684,71.042 11.257,62.635"
        stroke="#979797" stroke-width="1"/>
    <path fill="#00000000" fill-rule="evenodd"
        d="M207.6,96.523C207.204,92.118 206.538,87.79 205.604,83.563C195.426,37.474 154.382,3 105.297,3C57.057,3 16.583,36.297 5.543,81.193C4.32,86.17 3.459,91.291 2.988,96.523"
        stroke="#FFFFFF" stroke-width="6"/>
    <path fill="#00000000" fill-rule="evenodd"
        d="M3.092,116.328C8.322,168.235 52.085,208.751 105.297,208.751C155.461,208.751 197.228,172.744 206.231,125.13C206.778,122.238 207.197,119.301 207.497,116.328"
        stroke="#FFFFFF" stroke-width="6"/>
    <path fill="#00000000" fill-rule="nonzero"
        d="M14.06,97.724l23.073,0l0,16.504l-23.073,0"
        stroke="#FFFFFF" stroke-width="4"/>
    <path fill="#00000000" fill-rule="nonzero"
        d="M198.644,97.724l-23.073,0l-0,16.504l23.073,0"
        stroke="#FFFFFF" stroke-width="4"/>
    <path fill="#FFFFFF" fill-rule="nonzero"
        d="M37.133,105.426h138.438v2.201h-138.438z"
        stroke="#00000000" stroke-width="1"/>
    <path fill="#F24724" fill-rule="nonzero"
        d="M194.915,202.224L202.99,194.15L200.298,191.458L192.224,199.532L184.15,191.458L181.458,194.15L189.533,202.224L181.458,210.298L184.15,212.99L192.224,204.915L200.298,212.99L202.99,210.298L194.915,202.224ZM192.5,176C207.119,176 219,187.881 219,202.5C219,217.119 207.119,229 192.5,229C177.881,229 166,217.119 166,202.5C166,187.881 177.881,176 192.5,176Z"
        stroke="#00000000" stroke-width="1"/>
</svg>
