<svg height="24" viewBox="0 0 188 188" width="24" xmlns="http://www.w3.org/2000/svg"><path d="m108.568 22.748c-1.215-.325-2.439.387-2.763 1.575-.324 1.197.378 2.439 1.575 2.772 19.062 5.247 35.046 19.278 42.759 37.529.36.864 1.188 1.377 2.07 1.377.288 0 .585-.054.882-.18 1.143-.477 1.674-1.8 1.188-2.942-8.244-19.512-25.326-34.515-45.711-40.131zm-35.736 26.264c-7.452 0-13.499 6.048-13.499 13.5s6.048 13.5 13.499 13.5c7.452 0 13.5-6.048 13.5-13.5s-6.048-13.5-13.5-13.5zm17.168-49.012c-49.707 0-90 40.293-90 90s40.293 90 90 90 90-40.293 90-90-40.293-90-90-90zm-70.663 129.511c8.866-7.36 19.954-11.389 31.573-11.389 11.25 0 22.011 3.787 30.736 10.714-8.894 10.567-15.158 23.479-17.719 37.781-19.017-6.493-34.878-19.85-44.591-37.106zm70.663 41.489c-5.967 0-11.763-.693-17.361-1.926 5.733-34.47 35.613-60.093 70.938-60.093 8.271 0 16.317 1.458 24.003 4.185-9.99 33.408-40.968 57.834-77.58 57.834zm-2.157-48.726c-10.416-8.5-23.374-13.152-36.933-13.152-13.01 0-25.452 4.271-35.631 12.111-4.042-9.612-6.279-20.163-6.279-31.233 0-44.667 36.333-81 81-81 44.666 0 81 36.333 81 81 0 4.905-.514 9.684-1.35 14.355-8.37-2.853-17.1-4.374-26.073-4.374-21.476 0-41.153 8.432-55.734 22.293z" fill="#fff" stroke="#fff"/></svg>