<svg xmlns="http://www.w3.org/2000/svg" viewBox="0 0 182 186" height="24" width="24">
    <path fill="#fff" fill-rule="evenodd" d="M176.022,8.873c-2.537,0 -4.136,0.607 -4.136,1.453 0,0.864 1.655,1.471 4.082,1.47 2.371,0 4.136,-0.625 4.136,-1.471C180.1,9.516 178.559,8.873 176.022,8.873ZM162.522,9.505c-2.528,0.216 -4.07,0.957 -4,1.8 0.073,0.861 1.773,1.324 4.191,1.117 2.363,-0.2 4.068,-0.975 4,-1.818C166.642,9.8 165.049,9.289 162.521,9.5ZM149.122,11.276c-2.5,0.433 -3.972,1.3 -3.828,2.138 0.148,0.851 1.882,1.166 4.273,0.751 2.338,-0.405 3.97,-1.323 3.825,-2.156C153.251,11.212 151.619,10.842 149.119,11.276ZM135.932,14.26c-2.447,0.672 -3.828,1.681 -3.6,2.5 0.23,0.834 1.986,0.98 4.326,0.337 2.287,-0.628 3.823,-1.7 3.6,-2.515C140.038,13.8 138.378,13.588 135.932,14.26ZM123.12,18.606c-2.356,0.941 -3.616,2.1 -3.3,2.883 0.321,0.8 2.082,0.752 4.335,-0.149 2.2,-0.88 3.61,-2.115 3.3,-2.9C127.148,17.689 125.476,17.665 123.12,18.606ZM110.911,24.486c-2.213,1.241 -3.311,2.553 -2.9,3.291 0.423,0.754 2.163,0.474 4.28,-0.713 2.069,-1.16 3.3,-2.569 2.888,-3.307C114.786,23.051 113.124,23.245 110.911,24.486ZM99.685,32.015c-2,1.56 -2.891,3.021 -2.371,3.689s2.209,0.143 4.124,-1.348c1.872,-1.458 2.88,-3.036 2.36,-3.7C103.3,30.014 101.687,30.455 99.685,32.015ZM89.8,41.229c-1.716,1.87 -2.35,3.459 -1.727,4.031s2.2,-0.224 3.843,-2.013c1.6,-1.748 2.337,-3.471 1.714,-4.043C93.037,38.657 91.519,39.36 89.8,41.229ZM81.615,52.019c-1.368,2.137 -1.719,3.811 -1.007,4.267 0.728,0.466 2.132,-0.6 3.44,-2.645 1.279,-2 1.7,-3.821 0.991,-4.277C84.358,48.928 82.983,49.882 81.615,52.019ZM75.375,64.019c-1,2.333 -1.069,4.043 -0.291,4.376 0.795,0.34 2,-0.943 2.958,-3.174 0.933,-2.181 1.052,-4.05 0.274,-4.383C77.572,60.521 76.373,61.688 75.375,64.021ZM71.075,76.863c-0.642,2.454 -0.461,4.155 0.357,4.369 0.836,0.219 1.842,-1.229 2.457,-3.576 0.6,-2.294 0.443,-4.159 -0.375,-4.373C72.735,73.08 71.722,74.411 71.079,76.865ZM68.566,90.163c-0.329,2.516 0.065,4.181 0.9,4.291C70.331,94.565 71.147,93 71.462,90.6c0.308,-2.352 -0.083,-4.183 -0.922,-4.293C69.738,86.2 68.9,87.647 68.571,90.162ZM68.437,103.663c0.333,2.515 1.144,4.021 1.982,3.91 0.856,-0.113 1.241,-1.833 0.922,-4.239 -0.311,-2.351 -1.162,-4.018 -2,-3.907C68.544,99.537 68.109,101.152 68.442,103.667ZM72.645,116.522c1.172,2.251 2.448,3.39 3.2,3 0.767,-0.4 0.541,-2.148 -0.58,-4.3 -1.1,-2.1 -2.465,-3.38 -3.215,-2.989C71.336,112.608 71.478,114.276 72.65,116.526ZM81.195,126.963c1.941,1.633 3.555,2.2 4.1,1.552s-0.319,-2.191 -2.176,-3.753c-1.815,-1.528 -3.567,-2.186 -4.112,-1.539C78.491,123.846 79.259,125.333 81.2,126.967ZM93.295,132.883c2.471,0.576 4.166,0.349 4.359,-0.474 0.2,-0.842 -1.277,-1.808 -3.641,-2.359 -2.31,-0.539 -4.171,-0.331 -4.363,0.492C89.469,131.333 90.827,132.311 93.3,132.887ZM106.711,131.977c2.4,-0.812 3.725,-1.9 3.454,-2.7 -0.276,-0.819 -2.038,-0.864 -4.338,-0.088 -2.247,0.76 -3.719,1.917 -3.448,2.718C102.641,132.677 104.31,132.793 106.714,131.981ZM117.871,124.397c1.763,-1.824 2.438,-3.4 1.83,-3.984s-2.207,0.168 -3.893,1.913c-1.648,1.706 -2.425,3.41 -1.817,4C114.575,126.889 116.111,126.226 117.874,124.4ZM125.414,113.153c1.13,-2.272 1.3,-3.974 0.542,-4.351 -0.774,-0.385 -2.054,0.826 -3.135,3 -1.056,2.124 -1.283,3.982 -0.526,4.359C123.023,116.525 124.287,115.428 125.417,113.157ZM130.084,100.433c0.678,-2.445 0.52,-4.149 -0.295,-4.374 -0.833,-0.231 -1.86,1.2 -2.509,3.541 -0.633,2.285 -0.5,4.153 0.313,4.379C128.376,104.2 129.409,102.882 130.087,100.437ZM132.633,87.166c0.267,-2.523 -0.168,-4.177 -1.009,-4.266 -0.86,-0.091 -1.637,1.491 -1.892,3.9 -0.25,2.359 0.187,4.179 1.027,4.268C131.567,91.161 132.369,89.693 132.636,87.17ZM132.254,73.641c-0.391,-2.507 -1.236,-3.994 -2.072,-3.864 -0.854,0.133 -1.2,1.862 -0.825,4.26 0.365,2.344 1.254,3.991 2.09,3.861C132.249,77.777 132.648,76.152 132.257,73.645ZM127.671,60.955c-1.3,-2.178 -2.643,-3.239 -3.369,-2.805 -0.741,0.444 -0.413,2.175 0.832,4.259 1.217,2.036 2.659,3.23 3.385,2.8C129.216,64.793 128.976,63.137 127.674,60.959ZM117.68,51.948c-2.279,-1.115 -3.982,-1.273 -4.354,-0.514 -0.379,0.776 0.841,2.048 3.021,3.114 2.131,1.042 3.991,1.257 4.362,0.5C121.067,54.324 119.962,53.067 117.683,51.952ZM104.368,49.908c-2.53,0.186 -4.081,0.908 -4.02,1.751 0.063,0.862 1.757,1.346 4.178,1.169 2.365,-0.174 4.079,-0.926 4.018,-1.77C108.488,50.255 106.9,49.726 104.371,49.912ZM91.268,53.3c-2.358,0.938 -3.62,2.094 -3.307,2.88 0.319,0.8 2.081,0.755 4.336,-0.142 2.2,-0.877 3.613,-2.111 3.3,-2.9C95.3,52.39 93.626,52.363 91.268,53.3ZM79.283,59.54c-2.159,1.334 -3.2,2.691 -2.756,3.411 0.454,0.736 2.182,0.382 4.247,-0.893 2.018,-1.247 3.191,-2.706 2.746,-3.426C83.095,57.944 81.442,58.208 79.283,59.541ZM68.241,67.376c-2,1.565 -2.881,3.03 -2.359,3.7s2.21,0.136 4.119,-1.361c1.866,-1.463 2.869,-3.044 2.348,-3.71C71.85,65.364 70.237,65.811 68.241,67.376ZM58.006,76.207c-1.847,1.74 -2.6,3.279 -2.016,3.895s2.213,-0.063 3.981,-1.727c1.727,-1.626 2.584,-3.292 2,-3.908C61.419,73.877 59.854,74.467 58.006,76.207ZM48.7,86.05c-1.649,1.928 -2.228,3.538 -1.585,4.087s2.194,-0.3 3.772,-2.146c1.542,-1.8 2.214,-3.55 1.571,-4.1C51.838,83.367 50.345,84.122 48.7,86.05ZM40.53,96.818c-1.43,2.1 -1.83,3.76 -1.131,4.237 0.714,0.488 2.148,-0.537 3.516,-2.543 1.337,-1.96 1.815,-3.771 1.115,-4.248C43.362,93.809 41.96,94.722 40.53,96.818ZM33.571,108.425c-1.2,2.238 -1.413,3.935 -0.667,4.333 0.763,0.407 2.078,-0.768 3.221,-2.908 1.117,-2.093 1.4,-3.944 0.65,-4.342C36.062,105.127 34.766,106.186 33.571,108.425ZM27.878,120.718c-0.955,2.35 -0.994,4.061 -0.211,4.38 0.8,0.325 1.986,-0.979 2.9,-3.228 0.893,-2.2 0.978,-4.069 0.194,-4.387C30.011,117.178 28.833,118.367 27.878,120.718ZM23.484,133.48c-0.716,2.434 -0.585,4.139 0.227,4.378 0.829,0.243 1.878,-1.173 2.563,-3.5 0.669,-2.276 0.567,-4.145 -0.244,-4.383C25.254,129.746 24.2,131.046 23.484,133.48ZM20.343,146.641c-0.481,2.49 -0.188,4.176 0.642,4.336 0.848,0.164 1.757,-1.346 2.217,-3.728 0.449,-2.329 0.17,-4.18 -0.66,-4.34C21.748,142.755 20.824,144.15 20.343,146.641ZM18.443,160.022c-0.248,2.525 0.2,4.177 1.04,4.259 0.86,0.084 1.626,-1.5 1.863,-3.919 0.232,-2.361 -0.217,-4.178 -1.058,-4.261C19.486,156.022 18.695,157.5 18.446,160.022ZM17.813,173.57c0,2.537 0.6,4.137 1.45,4.137 0.864,0 1.472,-1.653 1.473,-4.08 0,-2.371 -0.622,-4.136 -1.468,-4.137C18.458,169.49 17.814,171.034 17.813,173.57Z"/>
    <path fill="#00000000" fill-rule="evenodd"
        d="M39.128,157.89L19.171,178.822l-15.407,-23.5"
        stroke="#fff" stroke-width="4"/>
</svg>
