<svg xmlns="http://www.w3.org/2000/svg" viewBox="0 0 65.14 65.16" width="65" height="65">
    <path fill="#fff" d="M17.06,1.54 L1.52,17.08a5.22,5.22 0,0 0,0 7.36l39.2,39.2a5.22,5.22 0,0 0,7.36 0L63.62,48.1a5.22,5.22 0,0 0,0 -7.36L24.42,1.54A5.22,5.22 0,0 0,17.06 1.54ZM62.4,42.32a2.86,2.86 0,0 1,0 4L46.24,62.51a2.86,2.86 0,0 1,-4 0L2.61,22.92a2.86,2.86 0,0 1,0 -4l2.25,-2.25a0.18,0.18 0,0 1,0.25 0h0A1.94,1.94 0,0 0,8 16.82l8.86,-8.87c0.84,-0.84 0.54,-1.9 -0.29,-2.74h0a0.18,0.18 0,0 1,0 -0.25l2.24,-2.24a2.86,2.86 0,0 1,4 0Z"/>
    <path fill-opacity="0.5" fill="#fff"
        d="M0.4267,20.7394l20.7394,-20.7394l43.9325,43.9325l-20.7394,20.7394z" stroke-opacity="0.5"/>
    <path fill-opacity="0.2" fill="#fff"
        d="M63.76,45 L44.36,64.67 0.43,20.74l4.43,-4.11L48.58,27.93 63.24,42.07A1.84,1.84 0,0 1,63.76 45Z" stroke-opacity="0.2"/>
</svg>