<svg xmlns="http://www.w3.org/2000/svg" viewBox="0 0 65 65" width="65" height="65">
    <path
      d="M46.49,0h-26c-3.4,0 -6,2.31 -5.66,5.13l5.38,54.73C20.47,62.7 22.54,65 24.79,65H42.15c2.24,0 4.32,-2.31 4.61,-5.13L52.14,5.15C52.44,2.32 49.89,0 46.49,0ZM45.11,60.13a2.91,2.91 0,0 1,-2.53 2.82H24.25a2.91,2.91 0,0 1,-2.54 -2.82L16.89,4.85C16.75,3.3 18.15,2 20,2h3.74a0.2,0.2 0,0 1,0.21 0.17h0a2.18,2.18 0,0 0,2.28 2.12H40.75a2,2 0,0 0,2.1 -2.11h0A0.2,0.2 0,0 1,43.07 2h3.71C48.62,2 50,3.3 49.88,4.85Z"
      fill="#fff"/>
  <path
      d="M51.05,1.81H51L51,1.9Z"
      stroke-opacity="0.5"
      fill="#fff"
      fill-opacity="0.5"/>
  <path
      d="M45.47,63.13l0,0l-0.01,0l0.01,0z"
      stroke-opacity="0.5"
      fill="#fff"
      fill-opacity="0.5"/>
  <path
      d="M24.25,62.95H42.58a2.9,2.9 0,0 0,2.53 -2.82L49.88,4.85C50,3.3 48.62,2 46.78,2H43.07a0.2,0.2 0,0 0,-0.21 0.17,2 2,0 0,1 -2.1,2.11H26.22a2.18,2.18 0,0 1,-2.28 -2.12A0.2,0.2 0,0 0,23.73 2H20c-1.85,0 -3.24,1.27 -3.1,2.82l4.82,55.27A2.91,2.91 0,0 0,24.25 62.95Z"
      stroke-opacity="0.5"
      fill="#fff"
      fill-opacity="0.5"/>
  <path
      d="M51,1.81H51L51,1.9Z"
      stroke-opacity="0.5"
      fill="#fff"
      fill-opacity="0.5"/>
  <path
      d="M45.47,63.13l0,0l-0.01,0l0.01,0z"
      stroke-opacity="0.5"
      fill="#fff"
      fill-opacity="0.5"/>
  <path
      d="M16.89,4.85l4.82,55.27h0L16.89,4.85Z"
      stroke-opacity="0.5"
      fill="#fff"
      fill-opacity="0.5"/>
  <path
      d="M49.88,4.85C50,3.3 48.62,2 46.78,2H43.07a0.2,0.2 0,0 0,-0.21 0.17,2 2,0 0,1 -2.1,2.11H26.22a2.54,2.54 0,0 1,-0.7 -0.11A220.74,220.74 0,0 1,46.87 39.76Z"
      stroke-opacity="0.5"
      fill="#fff"
      fill-opacity="0.5"/>
  <path
      d="M24.25,62.95H42.58a2.9,2.9 0,0 0,2.53 -2.82l1.76,-20.36A220.76,220.76 0,0 0,25.52 4.22a2.15,2.15 0,0 1,-1.57 -2A0.2,0.2 0,0 0,23.73 2H20c-1.85,0 -3.24,1.27 -3.1,2.82l4.82,55.28A2.91,2.91 0,0 0,24.25 62.95Z"
      stroke-opacity="0.5"
      fill="#fff"
      fill-opacity="0.5"/>
  <path
      d="M24.25,62.95H42.58a2.9,2.9 0,0 0,2.53 -2.82l1.76,-20.36A220.76,220.76 0,0 0,25.52 4.22a2.15,2.15 0,0 1,-1.57 -2A0.2,0.2 0,0 0,23.73 2H20c-1.85,0 -3.24,1.27 -3.1,2.82l4.82,55.28A2.91,2.91 0,0 0,24.25 62.95Z"
      stroke-opacity="0.2"
      fill="#fff"
      fill-opacity="0.2"/>
</svg>