<svg xmlns="http://www.w3.org/2000/svg" viewBox="0 0 472 290" width="39" height="24">
    <path fill="#00000000" fill-rule="evenodd"
        d="M56,41m-12,0a12,12 0,1 1,24 0a12,12 0,1 1,-24 0"
        stroke="#95C9FA" stroke-width="4"/>
    <path fill="#00000000" fill-rule="evenodd"
        d="M423.011,128C429.637,128.006 435.004,133.382 435,140.008C434.996,146.634 429.622,152.002 422.996,152C416.369,151.998 410.999,146.625 411,139.999C411.004,133.369 416.381,127.997 423.011,128Z"
        stroke="#8FC31F" stroke-width="4"/>
    <path fill="#F8D264" fill-rule="evenodd"
        d="M79.937,83L96.063,83C98.237,83 100,84.68 100,86.753L100,87.247C100,89.32 98.237,91 96.063,91L79.937,91C77.763,91 76,89.32 76,87.247L76,86.753C76,84.68 77.763,83 79.937,83Z"
        stroke="#00000000" stroke-width="1"/>
    <path fill="#F4F4F7" fill-rule="evenodd"
        d="M67.017,223C78.061,223.009 87.006,231.968 87,243.011C86.994,254.055 78.038,263.003 66.994,263C55.951,262.997 47,254.043 47,243C47.006,231.95 55.967,222.996 67.017,223Z"
        stroke="#00000000" stroke-width="1"/>
    <path fill="#FFFFFF" fill-rule="evenodd"
        d="M173.253,7.328L324.537,7.328C330.834,7.328 335.938,12.427 335.938,18.717L335.938,275.103C335.938,278.124 334.737,281.021 332.599,283.156C330.461,285.292 327.561,286.492 324.537,286.492L173.253,286.492C166.956,286.492 161.851,281.393 161.851,275.103L161.851,18.717C161.851,12.427 166.956,7.328 173.253,7.328ZM157.338,30.92L159.339,30.92C160.875,30.92 162.12,32.164 162.12,33.699L162.12,53.897C162.12,55.431 160.875,56.675 159.339,56.675L157.338,56.675C156.601,56.675 155.893,56.382 155.371,55.862C154.85,55.341 154.556,54.634 154.556,53.897L154.556,33.695C154.556,32.161 155.802,30.916 157.338,30.916L157.338,30.92ZM157.338,58.799L159.339,58.799C160.875,58.799 162.12,60.043 162.12,61.578L162.12,68.955C162.12,69.692 161.827,70.399 161.306,70.92C160.784,71.44 160.077,71.733 159.339,71.733L157.338,71.733C156.601,71.733 155.893,71.441 155.371,70.92C154.85,70.399 154.556,69.692 154.556,68.955L154.556,61.578C154.555,60.84 154.848,60.132 155.37,59.61C155.892,59.089 156.6,58.795 157.338,58.795L157.338,58.799ZM296.513,0L316.942,0C318.469,0 319.708,1.237 319.708,2.763L319.708,4.747C319.708,6.273 318.469,7.51 316.942,7.51L296.513,7.51C294.985,7.51 293.747,6.273 293.747,4.747L293.747,2.763C293.747,1.237 294.985,0 296.513,0Z"
        stroke="#00000000" stroke-width="1"/>
    <path fill="#F5F6FA" fill-rule="evenodd"
        d="M183.021,21.245L315.909,21.245C322.205,21.245 327.31,26.344 327.31,32.634L327.31,261.145C327.31,267.435 322.205,272.534 315.909,272.534L183.021,272.534C176.724,272.534 171.62,267.435 171.62,261.145L171.62,32.634C171.62,26.344 176.724,21.245 183.021,21.245Z"
        stroke="#00000000" stroke-width="1"/>
    <path fill="#EDEEF2" fill-rule="nonzero"
        d="M252.333,68C247.333,68.639 241.333,67.738 241.333,75.937C241.333,75.639 241.333,79.639 241.333,80.639C241.333,80.639 240.889,86.152 243.333,87.639C243.333,88.639 248.333,96 243.333,98C238.333,100 239,100 234,102C233,102 222.333,105.639 221.333,116.049C221.333,115.639 221.333,135.085 218.333,143.55C218.333,143.639 214.333,176.639 212.333,181.639C212.333,180.639 209.333,189.43 221.333,186.639C221.333,186.639 226.333,182.639 221.333,177.639C220.333,176.639 220.333,171.841 221.333,170.702C221.333,170.639 229,160.459 232.167,134.049C232.333,133.639 238,148.639 232.167,167.639C232.333,166.639 232,196.639 232.167,201.639C232.278,201.639 238.333,199.972 250.333,196.639L251.333,183.847L254.333,196.639L272.333,191.639C271.667,170.972 270.333,158.972 268.333,155.639C268.333,155.639 266.333,142.992 270.333,133.815C270.333,134.639 276.333,165.766 281.333,170.702C280.333,169.639 283.333,178.3 279.333,179.969C279.333,179.639 279.333,186.639 283.333,186.639C284.333,186.639 293.333,187.639 291.333,177.639C291.333,177.639 286.333,156.639 286.333,155.639C286.333,155.639 281.333,127.513 281.333,123.639C281.333,122.639 281.333,105.639 268.333,101.639C255.333,97.639 261,99 258,97C257,94 258.797,90.411 259.407,88.061C261.333,80.639 263.786,68.488 252.333,68Z"
        stroke="#00000000" stroke-width="1"/>
    <path fill="#FFFFFF" fill-rule="evenodd"
        d="M-0,254.003l471.555,-121.003l0,157l-455.555,0z"
        stroke="#00000000" stroke-width="1"/>
    <path fill="#E4007F" fill-rule="evenodd"
        d="M24.226,151.489L24.219,136.43C24.219,135.706 24.802,135.119 25.521,135.119C26.24,135.119 26.823,135.706 26.823,136.43L26.83,151.489C26.83,151.957 26.582,152.39 26.179,152.624C25.776,152.858 25.28,152.858 24.877,152.624C24.474,152.39 24.226,151.957 24.226,151.489Z"
        stroke="#00000000" stroke-width="1"/>
    <path fill="#E4007F" fill-rule="evenodd"
        d="M16.734,143.629C16.734,143.281 16.872,142.948 17.116,142.703C17.36,142.457 17.691,142.32 18.036,142.32L33.013,142.32C33.731,142.32 34.314,142.907 34.314,143.63C34.314,144.353 33.731,144.939 33.013,144.939L18.036,144.939C17.318,144.938 16.736,144.352 16.734,143.629Z"
        stroke="#00000000" stroke-width="1"/>
    <path fill="#E4007F" fill-rule="evenodd"
        d="M456.993,26.744L456.987,11.688C457.007,10.978 457.584,10.414 458.289,10.414C458.994,10.414 459.571,10.978 459.592,11.688L459.592,26.746C459.547,27.435 458.978,27.97 458.292,27.97C457.606,27.97 457.038,27.434 456.993,26.744Z"
        stroke="#00000000" stroke-width="1"/>
    <path fill="#E4007F" fill-rule="evenodd"
        d="M449.502,18.888C449.502,18.54 449.639,18.207 449.884,17.962C450.128,17.717 450.459,17.579 450.804,17.579L465.78,17.586C466.245,17.586 466.675,17.835 466.907,18.241C467.139,18.646 467.139,19.145 466.907,19.55C466.675,19.955 466.245,20.205 465.78,20.205L450.804,20.198C450.085,20.197 449.503,19.611 449.502,18.888Z"
        stroke="#00000000" stroke-width="1"/>
    <path fill-opacity="0.8" fill="#9AC0FA"
        fill-rule="evenodd"
        d="M185.179,58.018L207.697,58.018C210.822,58.018 213.355,60.583 213.355,63.747L213.355,74.957C213.355,78.121 210.822,80.686 207.697,80.686L190.837,80.686C187.712,80.686 185.179,78.121 185.179,74.957L185.179,58.018Z"
        stroke-opacity="0.8" stroke="#00000000" stroke-width="1"/>
    <path fill="#C1C0C9" fill-rule="evenodd"
        d="M185.179,85.227l19.316,0l0,3.168l-19.316,0z"
        stroke="#00000000" stroke-width="1"/>
    <path fill="#C1C0C9" fill-rule="evenodd"
        d="M185.179,91.829l13.28,0l0,3.171l-13.28,0l0,-3.167z"
        stroke="#00000000" stroke-width="1"/>
    <path fill-opacity="0.8" fill="#A9A2DE"
        fill-rule="evenodd"
        d="M190.837,40.044L221.776,40.044C224.901,40.044 227.434,42.609 227.434,45.773L227.434,65.569C227.434,68.733 224.901,71.298 221.776,71.298L185.181,71.298L185.181,45.773C185.181,42.609 187.713,40.045 190.837,40.044Z"
        stroke-opacity="0.8" stroke="#00000000" stroke-width="1"/>
    <path fill="#FFFFFF" fill-rule="evenodd"
        d="M203.425,59.153l13.148,-13.153l2.427,2.428l-15.567,15.572l-0.008,-0.008l-0.008,0.008l-8.416,-8.419l2.427,-2.428l5.998,6z"
        stroke="#00000000" stroke-width="1"/>
</svg>