<svg height="65" viewBox="0 0 65 65" width="65" xmlns="http://www.w3.org/2000/svg"><g fill="#50e3c2"><path d="m43.43 0h-21.7a5.15 5.15 0 0 0 -5.13 5.13v54.74a5.15 5.15 0 0 0 5.13 5.13h21.7a5.15 5.15 0 0 0 5.13-5.13v-54.74a5.15 5.15 0 0 0 -5.13-5.13zm3.18 60.11a2.83 2.83 0 0 1 -2.82 2.82h-22.56a2.83 2.83 0 0 1 -2.82-2.82v-55.27a2.83 2.83 0 0 1 2.82-2.84h3.15a.17.17 0 0 1 .17.17 1.91 1.91 0 0 0 1.85 2.14h12.38c1.17 0 1.71-.95 1.71-2.11a.17.17 0 0 1 .17-.2h3.12a2.83 2.83 0 0 1 2.82 2.82z"/><path d="m18.41 1.79h28.95v61.33h-28.95z"/><path d="m45.66 63-27.25.16v-61.37l6 .23 22.59 38.41.37 20.1a1.81 1.81 0 0 1 -1.71 2.47z"/></g></svg>