<svg xmlns="http://www.w3.org/2000/svg" viewBox="0 0 65.14 65.16" width="65" height="65">
    <path fill="#fff" d="M63.62,17.06 L48.08,1.52a5.22,5.22 0,0 0,-7.36 0L1.52,40.72a5.22,5.22 0,0 0,0 7.36L17.06,63.62a5.22,5.22 0,0 0,7.36 0l39.2,-39.2A5.22,5.22 0,0 0,63.62 17.06ZM22.84,62.4a2.86,2.86 0,0 1,-4 0L2.64,46.24a2.86,2.86 0,0 1,0 -4L42.24,2.61a2.86,2.86 0,0 1,4 0l2.25,2.25a0.18,0.18 0,0 1,0 0.25h0A1.94,1.94 0,0 0,48.33 8l8.87,8.86c0.84,0.84 1.9,0.54 2.74,-0.29h0a0.18,0.18 0,0 1,0.25 0l2.24,2.24a2.86,2.86 0,0 1,0 4Z"/>
    <path fill-opacity="0.5" fill="#fff"
        d="M44.419,0.4331l20.7394,20.7394l-43.9325,43.9325l-20.7394,-20.7394z" stroke-opacity="0.5"/>
    <path fill-opacity="0.2" fill="#fff"
        d="M20.12,63.76 L0.49,44.36 44.42,0.43l4.11,4.43L37.22,48.58 23.08,63.24A1.84,1.84 0,0 1,20.12 63.76Z" stroke-opacity="0.2"/>
</svg>