<svg xmlns="http://www.w3.org/2000/svg" viewBox="0 0 65 65" width="65" height="65">
    <path
      d="M40.91,64c0.47,0.12 0.79,0.43 0.72,0.69s-0.51,0.36 -1,0.24 -0.79,-0.43 -0.72,-0.69S40.44,63.88 40.91,64Z"
      fill="#fff"/>
  <path
      d="M45.77,59.39c0.66,0.17 1.11,0.57 1,0.92s-0.71,0.48 -1.37,0.32 -1.11,-0.57 -1,-0.92S45.11,59.23 45.77,59.39Z"
      fill="#fff"/>
  <path
      d="M48.54,64.17c0.42,0.1 0.72,0.36 0.65,0.57s-0.46,0.3 -0.88,0.2 -0.72,-0.36 -0.65,-0.57S48.12,64.07 48.54,64.17Z"
      fill="#fff"/>
  <path
      d="M53,59.37c0.51,0.12 0.87,0.43 0.79,0.69s-0.56,0.36 -1.07,0.24 -0.87,-0.43 -0.79,-0.69S52.52,59.25 53,59.37Z"
      fill="#fff"/>
  <path
      d="M50,55.59c0.47,0.1 0.79,0.36 0.72,0.57s-0.51,0.3 -1,0.2S49,56 49,55.79 49.54,55.49 50,55.59Z"
      fill="#fff"/>
  <path
      d="M56.32,64a0.71,0.71 0,0 1,0.44 0.7c0,0.26 -0.31,0.37 -0.59,0.24a0.71,0.71 0,0 1,-0.44 -0.7C55.77,64 56,63.88 56.32,64Z"
      fill="#fff"/>
  <path
      d="M47.16,52.18a0.59,0.59 0,0 1,0.62 0.29c0.09,0.2 0,0.4 -0.3,0.44a0.59,0.59 0,0 1,-0.62 -0.29C46.77,52.41 46.91,52.22 47.16,52.18Z"
      fill="#fff"/>
  <path
      d="M60.37,59.7c0.33,0.08 0.56,0.29 0.51,0.46s-0.36,0.24 -0.68,0.16 -0.56,-0.29 -0.51,-0.46S60,59.61 60.37,59.7Z"
      fill="#fff"/>
  <path
      d="M56.76,55.75c0.33,0.08 0.56,0.29 0.51,0.46s-0.36,0.24 -0.68,0.16 -0.56,-0.29 -0.51,-0.46S56.43,55.66 56.76,55.75Z"
      fill="#fff"/>
  <path
      d="M53.81,52.48c0.24,0.06 0.4,0.22 0.36,0.35s-0.25,0.18 -0.49,0.12 -0.4,-0.22 -0.36,-0.35S53.58,52.41 53.81,52.48Z"
      fill="#fff"/>
  <path
      d="M64.74,64.73m-0.26,0a0.26,0.26 0,1 1,0.52 0a0.26,0.26 0,1 1,-0.52 0"
      fill="#fff"/>
  <path
      d="M26.56,59c-0.82,0.22 -1.39,0.77 -1.27,1.23s0.89,0.65 1.72,0.43 1.39,-0.77 1.27,-1.23S27.39,58.78 26.56,59Z"
      fill="#fff"/>
  <path
      d="M24.6,64c-0.47,0.12 -0.79,0.43 -0.72,0.69s0.51,0.36 1,0.24 0.79,-0.43 0.72,-0.69S25.07,63.89 24.6,64Z"
      fill="#fff"/>
  <path
      d="M19.23,59.38c-0.66,0.17 -1.11,0.57 -1,0.92s0.71,0.48 1.37,0.32 1.11,-0.57 1,-0.92S19.88,59.22 19.23,59.38Z"
      fill="#fff"/>
  <path
      d="M21.9,55.42c-0.61,0.14 -1,0.5 -0.94,0.8s0.66,0.42 1.26,0.28 1,-0.5 0.94,-0.8S22.51,55.27 21.9,55.42Z"
      fill="#fff"/>
  <path
      d="M16.46,64.17c-0.42,0.1 -0.72,0.36 -0.65,0.57s0.46,0.3 0.88,0.2 0.72,-0.36 0.65,-0.57S16.88,64.07 16.46,64.17Z"
      fill="#fff"/>
  <path
      d="M12,59.37c-0.51,0.12 -0.87,0.43 -0.79,0.69s0.56,0.36 1.07,0.24 0.87,-0.43 0.79,-0.69S12.48,59.24 12,59.37Z"
      fill="#fff"/>
  <path
      d="M15,55.57c-0.47,0.1 -0.79,0.36 -0.72,0.57s0.5,0.3 1,0.2S16,56 16,55.77 15.45,55.47 15,55.57Z"
      fill="#fff"/>
  <path
      d="M8.68,64a0.71,0.71 0,0 0,-0.44 0.7c0,0.26 0.31,0.37 0.59,0.24a0.71,0.71 0,0 0,0.44 -0.7C9.23,64 9,63.88 8.68,64Z"
      fill="#fff"/>
  <path
      d="M17.83,52.15a0.59,0.59 0,0 0,-0.62 0.29c-0.09,0.2 0,0.4 0.3,0.44a0.59,0.59 0,0 0,0.62 -0.29C18.22,52.39 18.09,52.2 17.83,52.15Z"
      fill="#fff"/>
  <path
      d="M4.63,59.69c-0.33,0.08 -0.56,0.29 -0.51,0.46s0.36,0.24 0.68,0.16 0.56,-0.29 0.51,-0.46S5,59.61 4.63,59.69Z"
      fill="#fff"/>
  <path
      d="M8.24,55.73c-0.33,0.08 -0.56,0.29 -0.51,0.46s0.36,0.24 0.68,0.16 0.56,-0.29 0.51,-0.46S8.57,55.65 8.24,55.73Z"
      fill="#fff"/>
  <path
      d="M11.18,52.46c-0.23,0.06 -0.4,0.22 -0.36,0.35s0.25,0.18 0.49,0.12 0.4,-0.22 0.36,-0.35S11.42,52.39 11.18,52.46Z"
      fill="#fff"/>
  <path
      d="M0.22,64.5a0.36,0.36 0,0 0,-0.22 0.35A0.19,0.19 0,0 0,0.23 65l0.07,0a0.36,0.36 0,0 0,0.22 -0.35,0.19 0.19,0 0,0 -0.23,-0.15Z"
      fill="#fff"/>
</svg>