<svg height="24" viewBox="0 0 188 188" width="24" xmlns="http://www.w3.org/2000/svg"><path d="m124.041 86.353c-4.257 4.434-8.766 8.625-13.5 12.543-2.812 2.26-5.091 5.12-6.694 8.354-1.749 3.256-2.634 6.907-2.569 10.603v2.681h-17.25v-2.681c-.206-5.275.899-10.519 3.216-15.262 4.924-7.591 11.059-14.324 18.159-19.932l2.681-3.056c2.804-3.281 4.406-7.406 4.547-11.728.228-4.834-1.444-9.565-4.659-13.182-3.707-3.398-8.64-5.138-13.66-4.818-6.086-.547-12.029 2.061-15.75 6.909-3.185 4.851-4.708 10.606-4.34 16.397h-16.875c-.553-10.213 3.107-20.206 10.125-27.647 7.501-7.143 17.623-10.866 27.965-10.284 9.143-.439 18.112 2.607 25.097 8.521 6.532 5.802 10.081 14.253 9.648 22.979.235 7.041-1.93 13.954-6.141 19.603m-23.138 62.681c-2.271 2.107-5.265 3.258-8.362 3.216-3.131.076-6.154-1.146-8.354-3.375-2.222-2.162-3.445-5.15-3.375-8.25-.14-3.094 1.097-6.094 3.375-8.194 2.222-2.175 5.25-3.337 8.354-3.215 3.168-.151 6.243 1.012 8.521 3.215 2.288 2.09 3.535 5.09 3.404 8.194.028 3.178-1.257 6.225-3.563 8.409m-7.153-149.034c-51.778 0-93.75 41.972-93.75 93.75s41.972 93.75 93.75 93.75 93.75-41.972 93.75-93.75-41.972-93.75-93.75-93.75" fill="#fff" fill-rule="evenodd" stroke="#fff"/></svg>