<svg height="200" viewBox="0 0 1024 1024" width="200" xmlns="http://www.w3.org/2000/svg"><path d="m246.272 198.144c-30.208 0-54.852267 24.337067-54.852267 54.3744v543.3344c0 30.037333 24.644267 54.272 54.852267 54.272h548.590933c30.378667 0 54.8864-24.234667 54.8864-54.272v-543.3344a54.613333 54.613333 0 0 0 -54.8864-54.3744h-82.3296v-54.3744h82.3296c60.6208 0 109.6704 48.64 109.6704 108.7488v543.3344c0 60.074667-49.0496 108.680533-109.6704 108.680533h-548.590933c-60.586667 0-109.738667-48.64-109.738667-108.680533v-543.3344c0-60.074667 49.186133-108.7488 109.738667-108.7488h82.261333v54.3744zm301.806933-34.474667v485.102934l143.7696-142.472534a27.579733 27.579733 0 0 1 38.775467 0 26.965333 26.965333 0 0 1 0 38.434134l-189.269333 187.528533a27.170133 27.170133 0 0 1 -20.821334 7.645867 27.136 27.136 0 0 1 -20.6848-7.645867l-189.303466-187.528533a27.0336 27.0336 0 0 1 0-38.434134 27.648 27.648 0 0 1 38.8096 0l143.906133 142.472534v-485.102934c0-14.9504 12.151467-27.136 27.272533-27.136a27.306667 27.306667 0 0 1 27.5456 27.136z" fill="#6a6172"/></svg>