<svg height="200" viewBox="0 0 1024 1024" width="200" xmlns="http://www.w3.org/2000/svg"><path d="m544.059897 959.266898h-64.949141c-228.633593 0-415.697442-187.063849-415.697442-415.697442v-64.949141c0-228.633593 187.063849-415.697442 415.697442-415.697442h64.949141c228.633593 0 415.697442 187.063849 415.697442 415.697442v64.949141c-.001024 228.633593-187.064873 415.697442-415.697442 415.697442z" fill="#b126b7"/><path d="m509.715712 393.059337c-65.754939 0-119.059433 53.304494-119.059434 119.059434s53.304494 119.059433 119.059434 119.059433 119.059433-53.304494 119.059433-119.059433-53.304494-119.059434-119.059433-119.059434zm0 196.533765c-42.787144 0-77.474331-34.686163-77.474331-77.474331s34.686163-77.474331 77.474331-77.474331 77.474331 34.686163 77.474331 77.474331-34.686163 77.474331-77.474331 77.474331zm230.779657-178.490857c0-72.572992-57.189115-129.762107-129.762107-129.762107 0 0-51.329419-1.642312-101.016526-1.642312s-99.374214 1.642312-99.374214 1.642312c-72.572992 0-131.405443 58.832451-131.405443 131.405442 0 0-1.642312 46.455725-1.642312 94.447278 0 51.274129 1.642312 104.302174 1.642312 104.302175 0 72.572992 58.832451 131.405443 131.405443 131.405442 0 0 46.455725 1.642312 94.447278 1.642312 51.274129 0 105.944486-1.642312 105.944486-1.642312 72.572992 0 129.762107-57.189115 129.762106-129.762106 0 0 1.642312-52.43112 1.642312-102.659863-.001023-49.136256-1.643335-99.376261-1.643335-99.376261zm-41.540052 194.001695c0 59.510263-36.743149 96.253412-96.253412 96.253412 0 0-54.980594 1.347433-97.025421 1.347433-39.353032 0-87.302606-1.347433-87.302606-1.347433-59.509239 0-97.895724-38.387509-97.895724-97.895724 0 0-1.347433-53.338282-1.347433-95.383109 0-39.353032 1.347433-88.944918 1.347433-88.944918 0-59.510263 38.387509-96.253412 97.895724-96.253412 0 0 50.598365-1.347433 91.342858-1.347433s92.98517 1.347433 92.985169 1.347433c59.510263 0 96.253412 36.743149 96.253412 96.253412 0 0 1.347433 51.348873 1.347433 91.637737-.001024 41.187835-1.347433 94.332602-1.347433 94.332602zm-64.483274-245.084358c-15.887629 0-28.768106 12.943958-28.768106 28.910426s12.880477 28.909402 28.768106 28.909402 28.767082-12.942934 28.767082-28.909402c0-15.967492-12.879453-28.910426-28.767082-28.910426z" fill="#fff"/></svg>