<svg height="32" viewBox="0 0 1024 1024" width="32" xmlns="http://www.w3.org/2000/svg"><path d="m64 512a448 448 0 1 0 896 0 448 448 0 1 0 -896 0z" fill="#57e087"/><path d="m512 256c141.385 0 256 114.615 256 256s-114.615 256-256 256h-220c-19.882 0-36-16.118-36-36v-220c0-141.385 114.615-256 256-256z" fill="#fff"/><g fill="#42da77"><path d="m608 512a32 32 0 1 0 64 0 32 32 0 1 0 -64 0z"/><path d="m480 512a32 32 0 1 0 64 0 32 32 0 1 0 -64 0z"/><path d="m352 512a32 32 0 1 0 64 0 32 32 0 1 0 -64 0z"/></g><path d="m256 576c12.916 51.583 34.916 92.916 66 124s73.084 53.75 126 68h-156c-19.882 0-36-16.118-36-36z" fill="#f2f5f3"/></svg>