<svg height="200" viewBox="0 0 1025 1024" width="200.195313" xmlns="http://www.w3.org/2000/svg"><g fill="#fff"><path d="m512.473662 1023.998571a511.815342 511.815342 0 0 1 -198.928229-983.64511 512.050257 512.050257 0 0 1 397.856457 943.659536 508.816424 508.816424 0 0 1 -198.928228 39.985574zm0-943.659537c-237.914163 0-431.844195 193.930032-431.844195 431.844195s193.930032 431.844194 431.844195 431.844194 431.844194-193.930032 431.844194-431.844194-193.930032-431.844195-431.844194-431.844195z"/><path d="m512.473662 591.154737a78.971508 78.971508 0 1 1 78.971507-78.971508 78.971508 78.971508 0 0 1 -78.971507 78.971508zm-227.91777 0a78.971508 78.971508 0 1 1 78.971508-78.971508 78.971508 78.971508 0 0 1 -78.971508 78.971508zm455.835539 0a78.971508 78.971508 0 1 1 78.971508-78.971508 78.971508 78.971508 0 0 1 -78.971508 78.971508z"/></g></svg>