<svg height="32" viewBox="0 0 1024 1024" width="32" xmlns="http://www.w3.org/2000/svg"><path d="m544.059897 959.266898h-64.949141c-228.633593 0-415.697442-187.063849-415.697442-415.697442v-64.949141c0-228.633593 187.063849-415.697442 415.697442-415.697442h64.949141c228.633593 0 415.697442 187.063849 415.697442 415.697442v64.949141c-.001024 228.633593-187.064873 415.697442-415.697442 415.697442z" fill="#5eaade"/><path d="m729.459932 627.30075c-3.156638-39.628458-24.044923-83.747676-32.624058-105.910698l-22.084182-57.046794c-.701361-23.73059 6.312253-78.322108-30.510759-146.611164s-110.820228-74.444654-124.497288-75.146016c-13.67706-.701361-99.247252-1.402723-141.330987 72.944663-42.083735 74.347385-30.744205 148.812517-30.744205 148.812517l-23.523765 57.47785c-.001024.002048-10.961716 26.222727-20.429584 58.135185-9.468891 31.913482-18.937783 82.063385-9.468892 92.233638s43.836626-46.643096 46.993265-51.902795c0 0 2.455277 27.179036 8.942615 41.382373l.809893 1.776441.330715.722863.378837.826276.299999.652215.444366.960404.202729.435151a281.465052 281.465052 0 0 0 1.917738 4.024893l.188394.386005c.231398.473035.467916.953237.711601 1.442655l.145391.291807c6.886653 13.807094 18.611164 33.823028 37.443487 50.420209l.017406.015358-1.183612.387029c-10.666837 3.516022-31.69437 11.209497-40.624698 19.819348-1.717056 1.655623-2.987697 3.345033-3.650151 5.045707-5.376422 13.793783 4.208169 15.430976 20.574976 16.365783 16.365783.934807 94.922361 3.039916 132.563457-2.220807.407506-.056314.787368-.113651 1.171325-.170989 2.710224.094197 5.32318.14232 7.828627.16075l.151535.001024c.83549.005119 1.66279.008191 2.474731.008191.496584 0 1.01467-.002048 1.541971-.006144l.209896-.001023a222.59267 222.59267 0 0 0 5.462429-.106484c.260067.037884.507847.075768.778152.113651 37.64212 5.260723 116.197674 3.156638 132.563457 2.220807 16.365783-.934807 25.951397-2.572 20.573952-16.365783-4.301342-11.03646-34.17422-21.619339-45.956069-25.412834a141.388325 141.388325 0 0 0 7.958661-7.645351l.236517-.244709a142.494121 142.494121 0 0 0 2.531045-2.702033c42.433903-46.643096 38.927096-76.101301 40.681011-92.935 0 0 35.775577 51.552626 43.488506 53.306542 7.712928 1.753916 10.168205-6.311229 7.011566-45.940711z" fill="#fff"/></svg>