<svg height="200" viewBox="0 0 1024 1024" width="200" xmlns="http://www.w3.org/2000/svg"><path d="m540.9 866h59v59h-59zm-118.1-442.9v-324.7h-324.7v324.8h59v59h59v-59h206.7zm-265.7-59v-206.7h206.7v206.7zm0 0"/><path d="m216.2 216.4h88.6v88.6h-88.6zm383.8-118v324.8h324.8v-324.8zm265.7 265.7h-206.7v-206.7h206.7zm0 0"/><path d="m718.1 216.4h88.6v88.6h-88.6zm-501.9 501.9h88.6v88.6h-88.6zm-118.1-236.1h59v59h-59zm118.1 0h59.1v59h-59.1zm0 0"/><path d="m275.2 600.2h-177.1v324.8h324.8v-324.8h-88.6v-59h-59v59zm88.6 59.1v206.7h-206.7v-206.7zm118.1-531.4h59v88.6h-59zm0 147.6h59v59h-59zm177.1 206.7h-118.1v-88.6h-59v88.6h-147.6v59h265.7v59h59zm0 118h59.1v59h-59.1zm-177.1 0h59v88.6h-59zm0 147.7h59v118.1h-59zm118.1-59.1h59v177.2h-59zm177.1-88.6h147.6v59h-147.6zm88.6-118h59v59h-59zm-147.6 0h118.1v59h-118.1zm0 206.6h59v59h-59zm147.6 59.1h-29.5v59h59v-59h29.5v-59h-59zm-147.6 59h59v59.1h-59zm59 59.1h147.6v59h-147.6zm0 0"/></svg>