<svg height="32" viewBox="0 0 1024 1024" width="32" xmlns="http://www.w3.org/2000/svg"><path d="m544.059897 959.266898h-64.949141c-228.633593 0-415.697442-187.063849-415.697442-415.697442v-64.949141c0-228.633593 187.063849-415.697442 415.697442-415.697442h64.949141c228.633593 0 415.697442 187.063849 415.697442 415.697442v64.949141c-.001024 228.633593-187.064873 415.697442-415.697442 415.697442z" fill="#2dc100"/><path d="m618.871102 424.812069c-52.6789 2.760395-98.49572 18.754507-135.696546 54.89766-37.587854 36.50356-54.743053 81.262707-50.047514 136.728622-20.586238-2.580191-39.34177-5.366183-58.19969-6.965492-6.552866-.516038-14.292415.258019-19.786584 3.353224-18.316285 10.318716-35.858512 22.030941-56.703793 35.085479 3.818068-17.284208 6.294847-32.505287 10.680148-47.029101 3.173021-10.732366 1.702721-16.691379-8.152175-23.65687-63.256659-44.73355-89.905323-111.652647-69.963108-180.584703 18.470891-63.720479 63.798295-102.417201 125.376806-122.539619 84.100917-27.500536 178.52055.567232 229.651335 67.409538 18.733006 24.012159 30.112467 52.935895 32.763306 83.275665zm118.36012 328.973331c-16.691379-7.429312-31.989249-18.574304-48.241381-20.302622-16.252132-1.702721-33.330539 7.687331-50.305534 9.416673-51.724639 5.288368-98.0319-9.132033-136.263778-44.526725-72.646712-67.331723-62.275777-170.522981 21.799542-225.730878 74.736462-49.015438 184.324956-32.659894 237.003856 35.342474 45.971427 59.386373 40.55405 138.198922-15.55589 188.066232-16.252132 14.447022-22.108756 26.313853-11.686627 45.32638 1.909546 3.508855 2.140944 7.94535 3.250836 12.382869zm-360.833571-350.437039c.516038-12.640888-10.422129-23.991681-23.373254-24.353112-13.025869-.533444-24.017278 9.593805-24.550722 22.619674-.003072.078839-.006143.158702-.008191.237542-.512967 12.869215 9.503704 23.719327 22.372918 24.232294.238565.009215.477131.015358.715696.017406 13.109828.48225 24.17598-9.653191 24.843553-22.753804zm126.512295-24.353112c-13.00232.258019-23.991681 11.350793-23.733662 23.99168.280545 13.104708 11.131681 23.50124 24.23639 23.220696.038908-.001024.077815-.002048.116723-.003072 12.865119.104436 23.379398-10.239877 23.483834-23.104996.002048-.278497 0-.556994-.008192-.835491-.109556-12.96546-10.708817-23.386565-23.673252-23.277009-.140272.002048-.281569.004096-.421841.008192zm44.424337 190.645399c10.628954 0 19.348361-8.332379 19.760986-18.832323.384981-10.920761-8.15627-20.086582-19.077031-20.471563-.176108-.006143-.352217-.010239-.529349-.011262-11.041579.069624-19.937095 9.076743-19.867471 20.118322.001024.08703.002048.175084.003072.262115.467916 10.557282 9.140224 18.88966 19.709793 18.934711zm122.409586-39.289551c-10.452845.086006-19.011503 8.337498-19.477371 18.781128-.570304 10.670933 7.617707 19.782488 18.28864 20.352793.310237.016382.620475.025597.930712.027645 10.654551 0 19.090342-8.07436 19.47737-18.703314.528325-10.772298-7.776409-19.934023-18.548706-20.462348-.223207-.011263-.447438-.01843-.670645-.021501z" fill="#fff"/></svg>